<svg width="134" height="134" viewBox="0 0 134 134" fill="none" xmlns="http://www.w3.org/2000/svg">
<rect x="0.0150146" y="0.647339" width="133.215" height="133.215" rx="32" fill="#C6F9E6"/>
<path fill-rule="evenodd" clip-rule="evenodd" d="M24.9567 31.4458C22.0431 32.3773 19.5454 34.9401 18.6878 37.8784C18.1514 39.7159 18.209 87.011 18.7498 88.7484C19.672 91.7117 22.2184 94.2156 25.192 95.0835C27.0941 95.6387 65.6668 95.5604 66.2271 95.0004C66.7059 94.5214 66.7694 93.2581 66.3437 92.6759C66.0657 92.2955 65.5633 92.2829 46.4867 92.1778C31.6717 92.096 26.735 92.0093 26.1747 91.8201C24.3851 91.2165 22.5571 89.389 21.9499 87.5966C21.7582 87.0303 21.6845 82.1912 21.6361 66.9991L21.5731 47.1421H60.188H98.8027V51.5661C98.8027 56.6325 98.8524 56.7942 100.411 56.7942C102.081 56.7942 102.02 57.1486 102.02 47.4803C102.02 40.3056 101.97 38.7994 101.701 37.8784C100.833 34.9048 98.3294 32.3585 95.366 31.4363C93.4894 30.8523 26.7852 30.8613 24.9567 31.4458ZM94.2142 34.6338C97.1441 35.6366 98.5136 37.7943 98.7396 41.7632L98.8629 43.9248H60.2246H21.5862L21.5878 42.5675C21.5932 37.8262 23.4322 35.1033 27.0385 34.4974C28.8389 34.195 93.3147 34.326 94.2142 34.6338ZM26.8145 37.8923C26.5463 38.1603 26.4122 38.5626 26.4122 39.0987C26.4122 40.5108 26.8053 40.7074 29.6296 40.7074C32.4539 40.7074 32.847 40.5108 32.847 39.0987C32.847 37.6867 32.4539 37.49 29.6296 37.49C27.4848 37.49 27.1718 37.5348 26.8145 37.8923ZM34.8579 37.8923C34.5897 38.1603 34.4556 38.5626 34.4556 39.0987C34.4556 40.5108 34.8487 40.7074 37.673 40.7074C40.4973 40.7074 40.8903 40.5108 40.8903 39.0987C40.8903 37.6867 40.4973 37.49 37.673 37.49C35.5282 37.49 35.2152 37.5348 34.8579 37.8923ZM42.9013 37.8923C42.6331 38.1603 42.499 38.5626 42.499 39.0987C42.499 40.5108 42.892 40.7074 45.7164 40.7074C48.5407 40.7074 48.9337 40.5108 48.9337 39.0987C48.9337 37.6867 48.5407 37.49 45.7164 37.49C43.5715 37.49 43.2586 37.5348 42.9013 37.8923ZM25.2059 52.3704C24.9377 52.6384 24.8036 53.0407 24.8036 53.5768C24.8036 55.239 24.5094 55.1855 33.6513 55.1855C42.7932 55.1855 42.499 55.239 42.499 53.5768C42.499 51.9146 42.7932 51.9681 33.6513 51.9681C25.8761 51.9681 25.5945 51.9815 25.2059 52.3704ZM25.2059 58.8051C24.9377 59.0731 24.8036 59.4754 24.8036 60.0115C24.8036 61.7561 23.2412 61.6202 43.3033 61.6202C63.3655 61.6202 61.8031 61.7561 61.8031 60.0115C61.8031 58.2669 63.3655 58.4028 43.3033 58.4028C25.8761 58.4028 25.6017 58.409 25.2059 58.8051ZM74.8257 58.7933C71.912 59.7248 69.4144 62.2876 68.5567 65.2259C68.0759 66.8725 68.0759 94.9762 68.5567 96.6227C69.4246 99.5963 71.9285 102.143 74.8918 103.065C76.7842 103.654 106.343 103.654 108.235 103.065C111.199 102.143 113.703 99.5963 114.571 96.6227C115.051 94.9762 115.051 66.8725 114.571 65.2259C113.703 62.2523 111.199 59.706 108.235 58.7838C106.378 58.2057 76.6377 58.2142 74.8257 58.7933ZM107.084 61.9865C108.928 62.605 110.759 64.4759 111.317 66.3129C111.685 67.5236 111.685 94.325 111.317 95.5357C110.742 97.4283 108.872 99.2982 106.979 99.8735C105.767 100.242 77.3599 100.242 76.1479 99.8735C74.3106 99.3152 72.4381 97.4826 71.8222 95.64C71.4886 94.6418 71.3358 69.4291 71.6511 67.3973C72.1236 64.3513 74.0352 62.3314 76.9074 61.8426C78.6222 61.551 106.176 61.6822 107.084 61.9865ZM25.2059 65.2398C24.9377 65.5078 24.8036 65.9101 24.8036 66.4462C24.8036 68.1908 23.2412 68.0549 43.3033 68.0549C63.3655 68.0549 61.8031 68.1908 61.8031 66.4462C61.8031 64.7016 63.3655 64.8375 43.3033 64.8375C25.8761 64.8375 25.6017 64.8437 25.2059 65.2398ZM44.686 71.4753C44.1697 71.777 37.673 86.5606 37.673 87.4337C37.673 88.7046 39.0639 89.4212 40.2736 88.7739C40.8121 88.4856 47.325 73.7375 47.325 72.8063C47.325 71.5368 45.852 70.794 44.686 71.4753ZM50.1404 72.8377C48.1731 73.4626 48.4344 74.8687 50.9969 77.4511L52.8383 79.3069L50.886 81.2939C48.2673 83.9594 48.1461 85.7503 50.5846 85.7503C51.923 85.7503 56.9771 80.668 56.9771 79.3223C56.9771 77.7499 51.382 72.4431 50.1404 72.8377ZM32.4024 75.6538C28.6451 79.4111 28.6513 79.1949 32.1934 82.7832C35.3907 86.0219 36.0437 86.3745 37.0933 85.4291C38.2768 84.363 38.0099 83.5986 35.6098 81.1802L33.7684 79.3244L35.7207 77.3373C37.8817 75.138 38.2256 74.2379 37.2709 73.2832C36.2182 72.2305 35.4535 72.6027 32.4024 75.6538ZM92.9463 73.084C92.43 73.3857 85.9333 88.1693 85.9333 89.0423C85.9333 90.3133 87.3242 91.0299 88.5339 90.3826C89.0724 90.0943 95.5853 75.3462 95.5853 74.415C95.5853 73.1455 94.1123 72.4027 92.9463 73.084ZM83.6209 74.5766C83.2891 74.7243 81.8637 76.0172 80.4537 77.4496C76.9123 81.0471 76.9059 80.8293 80.6627 84.5862C83.7408 87.6643 84.468 88.0154 85.4661 86.9065C86.4784 85.7817 86.2463 85.1833 83.8657 82.7845L82.0199 80.9243L83.8657 79.0642C84.8808 78.0413 85.8043 76.9554 85.9178 76.6512C86.42 75.3066 84.9537 73.9823 83.6209 74.5766ZM98.4006 74.4464C96.4324 75.0716 96.6944 76.4774 99.2616 79.0642L101.107 80.9243L99.2616 82.7845C96.8571 85.2075 96.5897 85.9714 97.7737 87.0378C98.8266 87.9865 99.4873 87.628 102.674 84.3805C106.18 80.8059 106.184 81.0322 102.573 77.379C99.998 74.7738 99.1798 74.1988 98.4006 74.4464Z" fill="#3AC178"/>
</svg>
