<svg width="134" height="134" viewBox="0 0 134 134" fill="none" xmlns="http://www.w3.org/2000/svg">
<rect x="0.0148926" y="0.634888" width="133.215" height="133.215" rx="32" fill="#C6ECF9"/>
<path fill-rule="evenodd" clip-rule="evenodd" d="M24.573 24.3875C23.4407 25.1339 23.4551 25.0389 23.4551 31.6557C23.4551 39.9688 22.7202 39.2419 31.1257 39.2419C38.8299 39.2419 38.7951 39.257 38.7973 35.9137L38.7984 34.1852H43.8011C46.5525 34.1852 48.772 34.2161 48.7334 34.2536C48.6947 34.2912 48.17 34.6821 47.5672 35.1222C39.8653 40.7448 34.8065 49.5118 33.9805 58.6674C33.8684 59.9088 33.8421 59.972 33.3498 60.176C25.6939 63.3472 27.981 74.8251 36.2689 74.8251C44.2761 74.8251 46.889 63.4758 39.5994 60.3597C39.0447 60.1227 39.0233 59.8498 39.3891 57.689C41.133 47.394 48.1053 39.1415 57.8317 35.8602C59.581 35.2703 59.8111 35.228 59.9615 35.4693C63.1234 40.5415 70.1212 40.5415 73.2831 35.4693C73.4336 35.228 73.6637 35.2703 75.4129 35.8602C85.1394 39.1415 92.1117 47.394 93.8555 57.689C94.2213 59.8498 94.2 60.1227 93.6453 60.3597C86.3557 63.4758 88.9685 74.8251 96.9758 74.8251C105.264 74.8251 107.551 63.3472 99.8949 60.176C99.4025 59.972 99.3762 59.9088 99.2642 58.6674C98.4336 49.46 93.3174 40.6364 85.6177 35.1321L84.293 34.1852H89.3698H94.4463L94.4473 35.9137C94.4495 39.257 94.4147 39.2419 102.119 39.2419C110.524 39.2419 109.79 39.9688 109.79 31.6557C109.79 23.3426 110.524 24.0696 102.119 24.0696C94.4147 24.0696 94.4495 24.0544 94.4473 27.3979L94.4463 29.1264H84.1633H73.8804L73.5206 28.4096C70.5859 22.5621 62.6587 22.5621 59.7241 28.4096L59.3643 29.1262L49.0813 29.1264H38.7984L38.7973 27.3979C38.796 25.497 38.6125 25.0033 37.6783 24.3875C36.9363 23.8982 25.3151 23.8982 24.573 24.3875ZM54.1168 61.0443C42.8604 77.974 43.797 76.4556 43.8934 77.6209C43.9727 78.5743 43.855 78.3978 46.2397 81.1487C49.3965 84.7907 52.0067 90.1567 53.0166 95.0812C53.2698 96.3161 53.2126 96.2975 55.0687 95.7469C58.4169 94.7535 74.8277 94.7535 78.1759 95.7469C80.032 96.2975 79.9748 96.3161 80.228 95.0812C81.2379 90.1567 83.8482 84.7907 87.0049 81.1487C89.3881 78.3995 89.2722 78.5735 89.3508 77.6261C89.4507 76.4193 90.0425 77.379 78.942 60.7445L69.1518 46.0736V58.2161V70.3583L70.0029 70.7488C76.984 73.9515 74.3801 84.6864 66.6223 84.6864C58.8646 84.6864 56.2606 73.9515 63.2417 70.7488L64.0928 70.3583V58.2582C64.0928 51.603 64.0738 46.1602 64.0507 46.1628C64.0276 46.1654 59.5572 52.862 54.1168 61.0443ZM65.2128 75.1452C64.4252 75.6643 64.0952 76.3172 64.0952 77.3546C64.0952 79.9542 67.3989 80.9374 68.8317 78.764C69.5462 77.6803 69.1486 75.8814 68.0318 75.1452C67.7067 74.9308 67.2478 74.8274 66.6223 74.8274C65.9968 74.8274 65.5379 74.9308 65.2128 75.1452ZM55.9986 100.559C50.8927 102.298 47.4495 108.225 50.4744 110.07C51.3365 110.595 81.9082 110.595 82.7702 110.07C85.8063 108.218 82.3349 102.273 77.2148 100.554L75.9219 100.12L66.5925 100.124L57.2634 100.128L55.9986 100.559Z" fill="#00A3FF"/>
</svg>
