<svg xmlns="http://www.w3.org/2000/svg" viewBox="0 0 254.56 132.01"><defs><style>.cls-1{fill:#263238;}.cls-2,.cls-4,.cls-6{fill:#fff;}.cls-2{opacity:0.2;}.cls-3,.cls-5,.cls-7{fill:none;}.cls-3{stroke:#8ad344;}.cls-3,.cls-5{stroke-linecap:round;stroke-linejoin:round;}.cls-5{stroke:#263238;}.cls-6{opacity:0.44;}.cls-7{stroke:#fff;stroke-miterlimit:10;}.cls-8{fill:#3e4950;}.cls-9{fill:#2e353a;}.cls-10{fill:#4d5a64;}.cls-11,.cls-12{fill:#8ad344;}.cls-12{fill-rule:evenodd;}</style></defs><g id="Layer_2" data-name="Layer 2"><g id="Graphics"><polygon class="cls-1" points="221.48 132.01 184.15 132.01 217.23 0.85 254.56 0.85 221.48 132.01"/><polygon class="cls-2" points="221.48 132.01 184.15 132.01 217.23 0.85 254.56 0.85 221.48 132.01"/><path class="cls-1" d="M224.57,32.89H215a1.63,1.63,0,0,1-1.62-2.17l2.51-9.95a3,3,0,0,1,2.71-2.16h9.6a1.63,1.63,0,0,1,1.62,2.16l-2.51,10A3,3,0,0,1,224.57,32.89Z"/><polygon class="cls-1" points="252.89 7.48 215.56 7.48 217.23 0.85 254.56 0.85 252.89 7.48"/><line class="cls-3" x1="227.64" y1="8.57" x2="226.91" y2="11.45"/><line class="cls-3" x1="229.08" y1="8.57" x2="228.35" y2="11.45"/><line class="cls-3" x1="230.51" y1="8.57" x2="229.79" y2="11.45"/><line class="cls-3" x1="231.95" y1="8.57" x2="231.23" y2="11.45"/><line class="cls-3" x1="233.39" y1="8.57" x2="232.67" y2="11.45"/><line class="cls-3" x1="234.83" y1="8.57" x2="234.1" y2="11.45"/><line class="cls-3" x1="236.27" y1="8.57" x2="235.54" y2="11.45"/><line class="cls-3" x1="237.71" y1="8.57" x2="236.98" y2="11.45"/><line class="cls-3" x1="239.14" y1="8.57" x2="238.42" y2="11.45"/><line class="cls-3" x1="240.58" y1="8.57" x2="239.86" y2="11.45"/><path class="cls-4" d="M225.37,26.65l-5.46-5.73a.47.47,0,0,0-.56-.06.75.75,0,0,0-.41.51L217.5,30.3a.39.39,0,0,0,.27.46l.13,0a.68.68,0,0,0,.49-.23l2.79-2.93,3.63-.05a.71.71,0,0,0,.57-.34A.48.48,0,0,0,225.37,26.65Z"/><polygon class="cls-1" points="224.93 27.05 219.48 21.32 218.03 30.25 221.03 27.1 224.93 27.05"/><polygon class="cls-4" points="241.82 27.05 236.37 21.32 234.93 30.25 237.93 27.1 241.82 27.05"/><polygon class="cls-4" points="243.28 32.13 243.61 30.29 241.58 31.84 243.28 32.13"/><polygon class="cls-4" points="228.49 90.75 228.83 88.91 226.8 90.46 228.49 90.75"/><polygon class="cls-4" points="223.96 108.74 224.29 106.9 222.26 108.44 223.96 108.74"/><polygon class="cls-4" points="219.3 127.18 219.64 125.34 217.6 126.89 219.3 127.18"/><polygon class="cls-4" points="216.56 69.98 216.89 68.14 214.86 69.69 216.56 69.98"/><polygon class="cls-4" points="211.32 90.75 211.65 88.91 209.62 90.46 211.32 90.75"/><polygon class="cls-4" points="206.78 108.74 207.11 106.9 205.08 108.44 206.78 108.74"/><polygon class="cls-4" points="202.13 127.18 202.46 125.34 200.43 126.89 202.13 127.18"/><polygon class="cls-4" points="209.6 51.87 210.54 52.88 220.49 43.87 219.55 42.85 209.6 51.87"/><path class="cls-4" d="M217.05,43c-1.16-1.78-1.1-2.14.72-4.16-2.19,1.62-2.56,1.65-4.25.34,1.17,1.78,1.11,2.14-.71,4.16C215,41.76,215.36,41.73,217.05,43Z"/><path class="cls-4" d="M224,44c-.72-1.1-.69-1.32.44-2.57-1.36,1-1.58,1-2.62.21.72,1.1.68,1.32-.45,2.57C222.72,43.22,222.94,43.2,224,44Z"/><path class="cls-4" d="M220.91,48.25c-.51-.79-.49-.94.32-1.83-1,.71-1.13.72-1.87.14.51.79.48.95-.32,1.84C220,47.69,220.17,47.67,220.91,48.25Z"/><polygon class="cls-4" points="218.6 88.22 219.14 88.91 229.09 79.89 228.55 79.2 218.6 88.22"/><polygon class="cls-4" points="239.15 49.55 234.33 44.49 233.06 52.37 235.71 49.58 239.15 49.55"/><path class="cls-4" d="M232.86,50c-2.92,0-4.87-1.73-4.33-3.85s3.35-3.84,6.27-3.84,4.87,1.73,4.33,3.84S235.78,50,232.86,50Zm1.82-7.23c-2.67,0-5.22,1.52-5.69,3.38s1.32,3.39,4,3.39,5.22-1.52,5.69-3.39S237.35,42.78,234.68,42.78Z"/><path class="cls-4" d="M229.83,49.24a1,1,0,0,1-1-1.31,1.79,1.79,0,0,1,1.64-1.3,1,1,0,0,1,1,1.3A1.79,1.79,0,0,1,229.83,49.24Zm.54-2.15a1.16,1.16,0,0,0-1.06.84.64.64,0,0,0,.63.85,1.16,1.16,0,0,0,1.06-.85A.63.63,0,0,0,230.37,47.09Z"/><path class="cls-4" d="M229.1,50.61l0-.44a3,3,0,0,0,1.59-1A1.79,1.79,0,0,0,231,48l.47-.16a2.36,2.36,0,0,1-.46,1.48A3.74,3.74,0,0,1,229.1,50.61Z"/><polygon class="cls-4" points="215.97 63.61 212.94 59.56 210.59 61.44 213.62 65.49 215.97 63.61"/><path class="cls-4" d="M203.78,68.86l.5.67,4.06-3.25a.74.74,0,0,1,.29-.77.64.64,0,0,1,.91,0,.77.77,0,0,1-1,1l-4.07,3.24.46.62L210.83,69,213,66l-3-4-3.38,1.36Z"/><line class="cls-5" x1="206.47" y1="56.13" x2="238.6" y2="56.13"/><polygon class="cls-4" points="232.27 59.56 229.92 61.44 232.95 65.49 235.3 63.61 232.27 59.56"/><path class="cls-4" d="M226,63.35l-2.85,5.51.49.67,4.07-3.25a.74.74,0,0,1,.29-.77.64.64,0,0,1,.91,0,.77.77,0,0,1-1,1l-4.07,3.24.46.62L230.16,69l2.17-3-3-4Z"/><path class="cls-4" d="M223.57,65c.3-.39.62-.81,1-1.28a3.31,3.31,0,0,0,.78-2.51,2.23,2.23,0,0,0-1.5-1.51.33.33,0,0,0-.37.18c-.07.14,0,.29.1.32a1.91,1.91,0,0,1,1.24,1.23,2.75,2.75,0,0,1-.67,2.07q-.49.69-.93,1.26c-1.52,2-2.43,3.2-.36,5.19A.2.2,0,0,0,223,70a.39.39,0,0,0,.23-.1.25.25,0,0,0,0-.37C221.43,67.78,222.06,67,223.57,65Z"/><path class="cls-4" d="M201,78.34l-.14.52a18.8,18.8,0,0,0-.46,2.35l1.07-.22a14.6,14.6,0,0,1,.31-1.61h4L203.5,88.3H202l-.27,1h4l.27-1h-1.49l2.25-8.92h3.86c-.14.57-.37,1.44-.48,1.88h1l.61-2.4.13-.52Z"/><path class="cls-6" d="M206.43,103.07c-.58,2.29-3.62,4.15-6.8,4.15s-5.28-1.86-4.7-4.15,3.62-4.15,6.8-4.15S207,100.77,206.43,103.07Z"/><path class="cls-7" d="M206.43,103.07c-.58,2.29-3.62,4.15-6.8,4.15s-5.28-1.86-4.7-4.15,3.62-4.15,6.8-4.15S207,100.77,206.43,103.07Z"/><path class="cls-4" d="M218.18,103.18l8-6.84a.87.87,0,0,1,1.05-.15h0a.77.77,0,0,1,0,1.14l-6.76,7.56Z"/><path class="cls-4" d="M217.2,103.76c1.61-.2,3.71,1.07,2.6,3a2.84,2.84,0,0,1-1.32,1,11.57,11.57,0,0,1-4.67.73,2.55,2.55,0,0,0,1.19-1.26,15.18,15.18,0,0,0,.33-1.63c.2-.77,1-1.8,1.87-1.86"/><path class="cls-4" d="M200,118.79a2.82,2.82,0,0,0-.2-1.87l-2.27,1.81a3.15,3.15,0,0,1,.25,2.12,10.36,10.36,0,0,0-.17,2.09l2.22-1.78A10.68,10.68,0,0,1,200,118.79Z"/><path class="cls-4" d="M197.34,120.89a2.93,2.93,0,0,0-.2-1.88l-2.27,1.82a3.15,3.15,0,0,1,.25,2.12A10.32,10.32,0,0,0,195,125l2.22-1.78A10.07,10.07,0,0,1,197.34,120.89Z"/><path class="cls-4" d="M200.37,118.76a10.52,10.52,0,0,0-.18,2.09l3.28-2.62-2-2.68-1.35,1.09A3.22,3.22,0,0,1,200.37,118.76Z"/><path class="cls-4" d="M194.71,123a2.82,2.82,0,0,0-.2-1.87l-1.9,1.52-2,3.45c-.13.24,0,.47.3.39l3.63-1.15A10.37,10.37,0,0,1,194.71,123ZM192,125.29l1.07-1.84.91,1.22Z"/><path class="cls-4" d="M210.72,120.42l-2.5,2,3.52,4.71,2.5-2,.21.29,5.9-4.71-3.95-5.28-5.9,4.71ZM212,126l-2.66-3.57,1.78-1.43,2.67,3.57Z"/><polygon class="cls-4" points="223.35 2.61 223.19 3.24 221.6 4.34 222.63 5.45 222.47 6.08 220.85 4.34 223.35 2.61"/><polygon class="cls-4" points="221.09 2.61 220.93 3.24 219.34 4.34 220.37 5.45 220.21 6.08 218.59 4.34 221.09 2.61"/><g id="Ai_Icon" data-name="Ai Icon"><path class="cls-8" d="M43.47,7.38A8.29,8.29,0,0,0,39.72.89h0a8.24,8.24,0,0,0-7.49,0L3.75,17.2A8.28,8.28,0,0,0,0,23.69V54.43a8.31,8.31,0,0,0,3.75,6.5h0a8.3,8.3,0,0,0,7.49,0L40.07,44.36c3.37-1.92,3.4-3.84,3.4-6.24Z"/><path class="cls-9" d="M0,54.43a8.31,8.31,0,0,0,3.75,6.5h0a8.34,8.34,0,0,0,6.85.31c-1.76.67-3.11-.34-3.11-2.48V28a7.63,7.63,0,0,1,1.1-3.69L1.1,20A7.63,7.63,0,0,0,0,23.69Z"/><path class="cls-10" d="M43.35,6.32c-.44-1.59-1.89-2.1-3.62-1.1L11.24,21.52a7.44,7.44,0,0,0-2.64,2.8L1.11,20a7.52,7.52,0,0,1,2.64-2.8L32.22.9a8.32,8.32,0,0,1,7.5,0h0A8.27,8.27,0,0,1,43.35,6.32Z"/><path class="cls-11" d="M35.81,15.05a5,5,0,0,1-2.08,4.16c-1.21.7-2-.16-2-1.8a4.85,4.85,0,0,1,2-4.18C35,12.52,35.78,13.35,35.81,15.05Z"/><polygon class="cls-11" points="35.68 20.43 35.33 39.67 31.31 41.99 31.67 22.75 35.68 20.43"/><path class="cls-11" d="M24.72,19.53l-5.06,2.92L14.45,51.71l4-2.31L19.66,42l4.88-2.82,1.32,6L30,42.73ZM20.22,37.2s1.54-10,1.79-11.67l0,0C22.31,26.93,24,35,24,35Z"/></g><g id="Ps_Icon" data-name="Ps Icon"><path class="cls-8" d="M141.75,8.07A8.28,8.28,0,0,0,138,1.58h0a8.32,8.32,0,0,0-7.5,0L102,17.88a8.31,8.31,0,0,0-3.75,6.5V55.12A8.28,8.28,0,0,0,102,61.61h0a8.26,8.26,0,0,0,7.5,0l28.83-16.55c3.37-1.92,3.4-3.85,3.4-6.24Z"/><path class="cls-9" d="M98.28,55.12A8.28,8.28,0,0,0,102,61.61h0a8.36,8.36,0,0,0,6.86.32c-1.76.67-3.11-.34-3.11-2.48V28.7a7.6,7.6,0,0,1,1.1-3.69l-7.49-4.33a7.67,7.67,0,0,0-1.1,3.7Z"/><path class="cls-10" d="M141.62,7c-.43-1.59-1.89-2.09-3.62-1.1L109.52,22.21a7.44,7.44,0,0,0-2.64,2.8l-7.49-4.32a7.6,7.6,0,0,1,2.64-2.8L130.5,1.58a8.39,8.39,0,0,1,7.5,0h0A8.25,8.25,0,0,1,141.62,7Z"/><path class="cls-12" d="M135.52,34A10.31,10.31,0,0,1,130.36,43a5.62,5.62,0,0,1-3.84.94l.65-4.46a4.35,4.35,0,0,0,3.19-.46,2.77,2.77,0,0,0,1.58-2.45c0-.93-.37-1.16-1.75-1.09-2.46.16-3.41-1.36-3.38-3.55a10.51,10.51,0,0,1,4.84-8.79A5.4,5.4,0,0,1,135,22.2l-.66,4.31a3.66,3.66,0,0,0-2.58.44,2.67,2.67,0,0,0-1.4,2.31c0,.86.46,1,1.91,1C134.55,30.14,135.49,31.36,135.52,34Z"/><path class="cls-12" d="M124.05,22.7c-1.09-.73-2.72-.46-5,.86A36.06,36.06,0,0,0,114,27V51.89l3.67-2.11v-9a9.79,9.79,0,0,0,1.27-.63,13.35,13.35,0,0,0,5.32-5.73,15.73,15.73,0,0,0,1.51-6.86C125.8,25.05,125.11,23.35,124.05,22.7Zm-5.11,13.05a5,5,0,0,1-1.23.57V28.87a7.14,7.14,0,0,1,1.52-1.11c1.86-1.07,2.9-.29,2.91,2A6.76,6.76,0,0,1,118.94,35.75Z"/></g><g id="Sketch_Icon" data-name="Sketch Icon"><path class="cls-8" d="M82,61.65a8.28,8.28,0,0,0-3.75-6.49h0a8.32,8.32,0,0,0-7.5,0L42.29,71.47A8.28,8.28,0,0,0,38.54,78V108.7a8.28,8.28,0,0,0,3.75,6.49h0a8.32,8.32,0,0,0,7.5,0L78.61,98.63C82,96.71,82,94.78,82,92.39Z"/><path class="cls-9" d="M38.54,108.7a8.28,8.28,0,0,0,3.75,6.49h0a8.4,8.4,0,0,0,6.86.31c-1.76.67-3.11-.34-3.11-2.48V82.28a7.63,7.63,0,0,1,1.1-3.69l-7.5-4.32A7.69,7.69,0,0,0,38.54,78Z"/><path class="cls-10" d="M81.88,60.59c-.43-1.59-1.89-2.1-3.62-1.11L49.78,75.79a7.44,7.44,0,0,0-2.64,2.8l-7.49-4.32a7.49,7.49,0,0,1,2.64-2.79L70.75,55.17a8.35,8.35,0,0,1,7.51,0h0A8.2,8.2,0,0,1,81.88,60.59Z"/><polygon class="cls-11" points="57.17 80.07 57.17 86.02 62.13 75.97 57.17 80.07"/><polygon class="cls-11" points="70.46 72.26 64.94 74.07 70.46 78.88 70.46 72.26"/><polygon class="cls-11" points="70.05 80.04 64 74.75 57.94 87.03 58.38 86.77 63.53 83.8 70.05 80.04"/><polygon class="cls-11" points="53.2 91.07 61.66 99.58 56.38 89.24 53.2 91.07"/><polygon class="cls-11" points="67.19 93.91 74.08 79.02 71.5 80.51 67.19 93.91"/><polygon class="cls-11" points="63.7 101.07 70.03 81.36 57.36 88.67 63.7 101.07"/><polygon class="cls-11" points="56.04 82.83 53.4 89.65 55.99 88.15 56.04 88.13 56.04 82.83"/><polygon class="cls-11" points="71.7 79.08 74.53 77.45 71.59 73.27 71.59 79.15 71.7 79.08"/></g></g></g></svg>