<svg width="135" height="134" viewBox="0 0 135 134" fill="none" xmlns="http://www.w3.org/2000/svg">
<rect x="0.96106" y="0.647339" width="133.215" height="133.215" rx="32" fill="#F9D2C6"/>
<path fill-rule="evenodd" clip-rule="evenodd" d="M110.984 25.5548L111.485 26.0563V35.6528V45.2495L111.054 45.6807C110.387 46.3481 111.91 46.3257 67.5687 46.3257C23.2275 46.3257 24.7505 46.3481 24.0832 45.6807L23.6519 45.2495V35.6528V26.0563L24.1534 25.5548L24.6547 25.0535H67.5687H110.483L110.984 25.5548ZM27.0829 35.6895V42.7229H67.5687H108.054V35.6895V28.656H67.5687H27.0829V35.6895ZM38.2141 29.5448C43.4571 30.3639 44.4608 37.5564 39.6695 39.9757C38.6069 40.5122 36.7117 40.6494 35.5999 40.2706L34.8397 40.0115L34.1915 40.6755C32.4967 42.4109 30.488 42.0883 30.4447 40.0737C30.4296 39.3668 30.5012 39.23 31.3246 38.3963L32.2209 37.4885L31.9678 36.6475C30.7574 32.6252 34.0398 28.8927 38.2141 29.5448ZM36.2123 33.384C35.0275 34.2138 35.0979 35.9872 36.341 36.6302C38.3212 37.6541 40.1356 35.2162 38.5636 33.644C37.956 33.0364 36.8785 32.9172 36.2123 33.384ZM94.637 37.1471C95.7655 37.6407 95.955 39.2482 94.9813 40.0673L94.4756 40.4929L76.0044 40.4891C58.7621 40.4854 57.5087 40.4654 57.167 40.1887C56.2737 39.4652 56.1714 38.3725 56.9184 37.5364L57.4191 36.976L75.746 36.9382C91.3676 36.9062 94.1564 36.9369 94.637 37.1471ZM52.6383 37.2654C54.1106 38.263 53.5193 40.4929 51.7826 40.4929C50.8992 40.4929 50.4881 40.2768 50.1581 39.6384C49.2774 37.9354 51.0806 36.2101 52.6383 37.2654ZM110.37 48.7549C111.371 49.3052 111.306 48.0187 111.306 67.2546C111.306 86.5462 111.375 85.232 110.339 85.7621C109.805 86.035 57.2408 86.035 56.707 85.7621C55.6708 85.232 55.7393 86.5462 55.7393 67.2546C55.7393 47.9631 55.6708 49.2773 56.707 48.7472C57.2355 48.4769 109.879 48.4844 110.37 48.7549ZM52.6249 48.7933C53.5232 49.2949 53.489 48.5694 53.4956 67.2202C53.5021 86.1011 53.5423 85.3025 52.5628 85.7487C51.8135 86.0901 25.1716 86.0387 24.5063 85.6944C23.6249 85.2388 23.6519 85.8253 23.6519 67.1896V49.604L24.0658 49.1227L24.48 48.6414L38.3473 48.603C49.6445 48.5716 52.2909 48.6069 52.6249 48.7933ZM59.3343 65.7964C59.3343 73.2976 59.3543 79.4347 59.3784 79.4347C59.4028 79.4347 62.3942 75.4625 66.0261 70.6077C73.1856 61.0371 73.1916 61.0305 74.4355 61.4032C75.0165 61.5773 75.6008 62.2936 80.5964 68.9566L86.1154 76.318L86.759 75.6034C87.113 75.2102 88.6263 73.4605 90.1222 71.715C94.1643 66.9982 94.4315 66.7399 95.2729 66.7399C96.2729 66.7399 96.191 66.6589 102.064 73.4735C105.011 76.8937 107.488 79.7654 107.567 79.855C107.646 79.9446 107.711 73.7495 107.711 66.0882V52.1582H83.5228H59.3343V65.7964ZM27.0829 67.2546V82.351H38.491H49.899V67.2546V52.1582H38.491H27.0829V67.2546ZM88.8631 54.055C94.7681 55.0027 95.8577 63.1442 90.4186 65.6789C89.0078 66.3361 86.7884 66.337 85.3798 65.6804C78.9669 62.6919 81.89 52.936 88.8631 54.055ZM46.6395 54.9522C47.4926 55.248 47.9623 56.2221 47.6898 57.1309C47.3178 58.3729 47.6155 58.334 38.48 58.334H30.3084L29.8108 57.8013C29.1224 57.0644 29.1235 56.1498 29.8134 55.3776L30.3139 54.8172L38.1765 54.7807C43.9784 54.7537 46.1966 54.7987 46.6395 54.9522ZM86.5249 57.9976C84.5638 59.1893 85.2922 62.2611 87.6097 62.5718C89.4289 62.816 90.9919 60.6856 90.163 59.0916C89.3876 57.6011 87.9092 57.1564 86.5249 57.9976ZM46.6395 61.8175C47.4924 62.1085 47.9627 63.0825 47.6898 63.9929C47.3178 65.2349 47.6151 65.196 38.4839 65.196H30.3161L29.8145 64.6945C28.8457 63.7257 29.297 62.1478 30.6503 61.7719C31.5903 61.5108 45.8597 61.5516 46.6395 61.8175ZM72.5985 67.9044L71.3666 69.5706L72.6413 69.6207C73.3424 69.6483 74.4988 69.6483 75.2109 69.6207L76.5058 69.5706L75.2594 67.898C73.7662 65.8937 74.0855 65.893 72.5985 67.9044ZM47.1957 69.0298C48.1579 69.9217 47.8454 71.5943 46.6395 72.0056C45.8597 72.2715 31.5903 72.3123 30.6503 72.0512C29.297 71.6753 28.8457 70.0974 29.8145 69.1286L30.3161 68.627H38.5386H46.7611L47.1957 69.0298ZM91.7699 75.4016L88.3776 79.3368L89.5064 80.8438L90.6353 82.351H97.7237C103.605 82.351 104.789 82.312 104.675 82.1209C104.331 81.5434 95.4295 71.3793 95.3039 71.4201C95.2259 71.4456 93.6357 73.2372 91.7699 75.4016ZM65.2554 77.7158C63.4139 80.1671 61.9076 82.2129 61.9076 82.2619C61.9076 82.3109 67.3524 82.351 74.0071 82.351H86.1066L84.5522 80.2924L82.9975 78.2338H78.5294H74.0611L73.5598 77.7323C72.6325 76.8052 72.9696 75.2604 74.201 74.7923C74.434 74.7038 75.8984 74.6313 77.455 74.6313H80.2857L79.8028 73.9487L79.3199 73.2662L73.9614 73.2625L68.6029 73.2589L65.2554 77.7158ZM47.1948 75.8911C48.4666 77.0698 47.7095 79.0259 45.9959 78.9888C43.6371 78.9374 43.6646 75.489 46.0238 75.489C46.5593 75.489 46.8797 75.599 47.1948 75.8911ZM40.6892 75.9034C41.5348 76.6871 41.483 77.9701 40.5783 78.6453C40.1139 78.9918 39.9066 79.0059 35.2047 79.0059H30.3141L29.8137 78.4455C29.1079 77.6557 29.1182 76.7396 29.8409 76.0169L30.3688 75.489H35.3054H40.2421L40.6892 75.9034ZM110.057 88.3031C110.262 88.343 110.629 88.5747 110.872 88.8178L111.314 89.2598V98.8565V108.453L110.812 108.955L110.311 109.456H96.3891H82.4672L81.9657 108.955L81.4642 108.453V98.8565V89.2598L81.8954 88.8285C82.1328 88.5914 82.5669 88.3492 82.8605 88.2906C83.4453 88.1735 109.454 88.1856 110.057 88.3031ZM77.9967 88.4423C79.0839 88.9146 79.0793 88.8674 79.0253 99.1852L78.9767 108.455L78.4166 108.955L77.8562 109.456H51.2556H24.6547L24.1534 108.955L23.6519 108.453V98.8653C23.6519 88.2025 23.5865 88.8042 24.7946 88.3448C25.5601 88.0538 77.3209 88.1485 77.9967 88.4423ZM85.0667 98.8198V105.853H96.3891H107.711V98.8198V91.7863H96.3891H85.0667V98.8198ZM27.0829 98.8198V105.853H51.2714H75.4599V98.8198V91.7863H51.2714H27.0829V98.8198ZM70.3563 97.2896C71.1442 97.7485 71.3996 99.1694 70.8256 99.8993C69.5065 101.576 66.9293 100.091 67.7444 98.124C68.1267 97.2006 69.4681 96.7722 70.3563 97.2896ZM63.9032 97.4083C64.7964 98.1319 64.899 99.2247 64.1517 100.061L63.6513 100.621L48.8015 100.668C32.2324 100.72 32.9673 100.769 32.4708 99.5803C32.132 98.7693 32.2895 98.0864 32.9414 97.5379L33.4565 97.1044L48.4969 97.1082C62.4884 97.1117 63.5628 97.1325 63.9032 97.4083Z" fill="#FF5E2D"/>
</svg>
