<svg width="399" height="411" viewBox="0 0 399 411" fill="none" xmlns="http://www.w3.org/2000/svg">
<rect width="399" height="411" fill="#1E1E1E"/>
<g id="Frame 10">
<rect width="1248" height="572" transform="translate(-311 -53)" fill="#323131"/>
<g id="illustration">
<g id="picture">
<rect id="Rectangle 37" x="120.767" y="43.6978" width="201.685" height="345.583" rx="100.842" fill="url(#paint0_linear_0_1)"/>
<rect id="Rectangle 38" x="104.252" y="24.1697" width="234.715" height="384.639" rx="117.358" stroke="url(#paint1_linear_0_1)" stroke-width="4"/>
</g>
<path id="Star 1" d="M374.506 0.662354L376.41 5.80818C379.145 13.1986 384.972 19.0255 392.362 21.7602L397.508 23.6643L392.362 25.5684C384.972 28.3031 379.145 34.13 376.41 41.5204L374.506 46.6663L372.602 41.5204C369.867 34.13 364.04 28.3031 356.65 25.5684L351.504 23.6643L356.65 21.7602C364.04 19.0255 369.867 13.1986 372.602 5.80817L374.506 0.662354Z" fill="#7BD555"/>
<path id="Star 2" d="M50.0408 343.277L51.9449 348.423C54.6796 355.813 60.5065 361.64 67.8969 364.375L73.0427 366.279L67.8969 368.183C60.5065 370.918 54.6796 376.745 51.9449 384.135L50.0408 389.281L48.1366 384.135C45.4019 376.745 39.5751 370.918 32.1846 368.183L27.0388 366.279L32.1846 364.375C39.5751 361.64 45.4019 355.813 48.1366 348.423L50.0408 343.277Z" fill="#1EE4C2"/>
<g id="Web development">
<g id="Rectangle 4" filter="url(#filter0_b_0_1)">
<rect x="253.226" y="285.288" width="145.732" height="87.2664" rx="13.1383" fill="#F1F7F9" fill-opacity="0.27" style="backdrop-filter: blur(10px);"/>
<rect x="253.653" y="285.715" width="144.878" height="86.4128" rx="12.7115" stroke="url(#paint2_linear_0_1)" stroke-opacity="0.5" stroke-width="0.853576"/>
</g>
<path id="Web development_2" d="M286.564 324.507H288.686L285.914 332.921H284.297L282.674 327.964L281.08 332.921H279.445L276.662 324.507H278.824L280.301 329.464L281.883 324.507H283.506L285.088 329.476L286.564 324.507ZM293.953 329.716C293.953 329.947 293.93 330.195 293.883 330.46H289.863C290.031 331.093 290.467 331.41 291.17 331.41C291.396 331.41 291.615 331.361 291.826 331.263C292.037 331.166 292.182 331.046 292.26 330.906L293.771 331.832C293.561 332.214 293.221 332.511 292.752 332.722C292.287 332.933 291.744 333.039 291.123 333.039C290.252 333.039 289.514 332.74 288.908 332.142C288.303 331.544 288 330.812 288 329.945C288 329.082 288.297 328.357 288.891 327.771C289.484 327.181 290.217 326.886 291.088 326.886C291.889 326.886 292.566 327.16 293.121 327.707C293.676 328.253 293.953 328.923 293.953 329.716ZM289.863 329.248H292.02C291.98 329.013 291.861 328.822 291.662 328.673C291.463 328.521 291.234 328.445 290.977 328.445C290.387 328.445 290.016 328.712 289.863 329.248ZM298.354 326.886C298.846 326.886 299.299 327.025 299.713 327.302C300.127 327.576 300.453 327.949 300.691 328.421C300.934 328.894 301.055 329.41 301.055 329.968C301.055 330.523 300.934 331.037 300.691 331.509C300.453 331.982 300.127 332.355 299.713 332.628C299.299 332.902 298.846 333.039 298.354 333.039C297.994 333.039 297.664 332.968 297.363 332.828C297.062 332.687 296.842 332.505 296.701 332.283V332.921H294.779V324.519H296.701V327.642C296.838 327.419 297.059 327.238 297.363 327.097C297.672 326.957 298.002 326.886 298.354 326.886ZM297.926 331.216C298.277 331.216 298.572 331.097 298.811 330.859C299.053 330.617 299.174 330.32 299.174 329.968C299.174 329.609 299.053 329.312 298.811 329.078C298.572 328.839 298.277 328.72 297.926 328.72C297.664 328.72 297.424 328.781 297.205 328.902C296.986 329.023 296.818 329.179 296.701 329.371V330.572C296.822 330.759 296.992 330.914 297.211 331.035C297.43 331.156 297.668 331.216 297.926 331.216ZM308.344 324.519H310.26V332.921H308.344V332.283C308.207 332.505 307.986 332.687 307.682 332.828C307.377 332.968 307.045 333.039 306.686 333.039C306.193 333.039 305.74 332.902 305.326 332.628C304.916 332.351 304.592 331.978 304.354 331.509C304.115 331.037 303.996 330.523 303.996 329.968C303.996 329.41 304.115 328.894 304.354 328.421C304.592 327.949 304.916 327.576 305.326 327.302C305.74 327.025 306.193 326.886 306.686 326.886C307.041 326.886 307.371 326.957 307.676 327.097C307.984 327.238 308.207 327.419 308.344 327.642V324.519ZM307.119 331.216C307.377 331.216 307.615 331.156 307.834 331.035C308.053 330.914 308.223 330.759 308.344 330.572V329.371C308.223 329.179 308.055 329.023 307.84 328.902C307.625 328.781 307.385 328.72 307.119 328.72C306.768 328.72 306.473 328.839 306.234 329.078C306 329.312 305.883 329.609 305.883 329.968C305.883 330.324 306.002 330.621 306.24 330.859C306.479 331.097 306.771 331.216 307.119 331.216ZM317.016 329.716C317.016 329.947 316.992 330.195 316.945 330.46H312.926C313.094 331.093 313.529 331.41 314.232 331.41C314.459 331.41 314.678 331.361 314.889 331.263C315.1 331.166 315.244 331.046 315.322 330.906L316.834 331.832C316.623 332.214 316.283 332.511 315.814 332.722C315.35 332.933 314.807 333.039 314.186 333.039C313.314 333.039 312.576 332.74 311.971 332.142C311.365 331.544 311.062 330.812 311.062 329.945C311.062 329.082 311.359 328.357 311.953 327.771C312.547 327.181 313.279 326.886 314.15 326.886C314.951 326.886 315.629 327.16 316.184 327.707C316.738 328.253 317.016 328.923 317.016 329.716ZM312.926 329.248H315.082C315.043 329.013 314.924 328.822 314.725 328.673C314.525 328.521 314.297 328.445 314.039 328.445C313.449 328.445 313.078 328.712 312.926 329.248ZM323.408 327.003L320.988 332.921H319.354L316.928 327.003H319.02L320.168 330.279L321.299 327.003H323.408ZM329.285 329.716C329.285 329.947 329.262 330.195 329.215 330.46H325.195C325.363 331.093 325.799 331.41 326.502 331.41C326.729 331.41 326.947 331.361 327.158 331.263C327.369 331.166 327.514 331.046 327.592 330.906L329.104 331.832C328.893 332.214 328.553 332.511 328.084 332.722C327.619 332.933 327.076 333.039 326.455 333.039C325.584 333.039 324.846 332.74 324.24 332.142C323.635 331.544 323.332 330.812 323.332 329.945C323.332 329.082 323.629 328.357 324.223 327.771C324.816 327.181 325.549 326.886 326.42 326.886C327.221 326.886 327.898 327.16 328.453 327.707C329.008 328.253 329.285 328.923 329.285 329.716ZM325.195 329.248H327.352C327.312 329.013 327.193 328.822 326.994 328.673C326.795 328.521 326.566 328.445 326.309 328.445C325.719 328.445 325.348 328.712 325.195 329.248ZM332.033 324.519V332.921H330.111V324.519H332.033ZM333.709 327.771C334.295 327.181 335.023 326.886 335.895 326.886C336.766 326.886 337.496 327.181 338.086 327.771C338.676 328.361 338.971 329.097 338.971 329.98C338.971 330.554 338.836 331.076 338.566 331.544C338.297 332.013 337.928 332.38 337.459 332.646C336.99 332.908 336.469 333.039 335.895 333.039C335.023 333.039 334.295 332.748 333.709 332.166C333.127 331.583 332.836 330.855 332.836 329.98C332.836 329.093 333.127 328.357 333.709 327.771ZM335.895 328.732C335.559 328.732 335.279 328.851 335.057 329.089C334.834 329.324 334.723 329.621 334.723 329.98C334.723 330.328 334.834 330.617 335.057 330.847C335.279 331.078 335.559 331.193 335.895 331.193C336.238 331.193 336.521 331.078 336.744 330.847C336.971 330.617 337.084 330.328 337.084 329.98C337.084 329.621 336.971 329.324 336.744 329.089C336.521 328.851 336.238 328.732 335.895 328.732ZM343.389 326.886C343.881 326.886 344.334 327.025 344.748 327.302C345.162 327.576 345.488 327.949 345.727 328.421C345.969 328.894 346.09 329.41 346.09 329.968C346.09 330.523 345.969 331.037 345.727 331.509C345.488 331.982 345.162 332.355 344.748 332.628C344.334 332.902 343.881 333.039 343.389 333.039C343.037 333.039 342.707 332.968 342.398 332.828C342.094 332.687 341.873 332.505 341.736 332.283V334.791H339.814V327.003H341.736V327.642C341.877 327.419 342.098 327.238 342.398 327.097C342.699 326.957 343.029 326.886 343.389 326.886ZM342.961 331.216C343.312 331.216 343.607 331.097 343.846 330.859C344.088 330.617 344.209 330.32 344.209 329.968C344.209 329.609 344.088 329.312 343.846 329.078C343.607 328.839 343.312 328.72 342.961 328.72C342.699 328.72 342.459 328.781 342.24 328.902C342.025 329.019 341.857 329.171 341.736 329.359V330.56C341.854 330.751 342.021 330.91 342.24 331.035C342.459 331.156 342.699 331.216 342.961 331.216ZM353.73 326.886C354.434 326.886 355.014 327.103 355.471 327.537C355.928 327.966 356.156 328.529 356.156 329.224V332.921H354.211V329.623C354.211 329.33 354.135 329.099 353.982 328.931C353.834 328.759 353.631 328.673 353.373 328.673C353.205 328.673 353.037 328.722 352.869 328.82C352.705 328.917 352.58 329.041 352.494 329.189V332.921H350.566V329.623C350.566 329.337 350.488 329.109 350.332 328.937C350.176 328.761 349.98 328.673 349.746 328.673C349.543 328.673 349.361 328.726 349.201 328.832C349.041 328.933 348.92 329.068 348.838 329.236V332.921H346.916V327.003H348.838V327.63C349.002 327.419 349.221 327.244 349.494 327.103C349.771 326.958 350.092 326.886 350.455 326.886C351.162 326.886 351.678 327.138 352.002 327.642C352.197 327.431 352.447 327.253 352.752 327.109C353.061 326.96 353.387 326.886 353.73 326.886ZM362.953 329.716C362.953 329.947 362.93 330.195 362.883 330.46H358.863C359.031 331.093 359.467 331.41 360.17 331.41C360.396 331.41 360.615 331.361 360.826 331.263C361.037 331.166 361.182 331.046 361.26 330.906L362.771 331.832C362.561 332.214 362.221 332.511 361.752 332.722C361.287 332.933 360.744 333.039 360.123 333.039C359.252 333.039 358.514 332.74 357.908 332.142C357.303 331.544 357 330.812 357 329.945C357 329.082 357.297 328.357 357.891 327.771C358.484 327.181 359.217 326.886 360.088 326.886C360.889 326.886 361.566 327.16 362.121 327.707C362.676 328.253 362.953 328.923 362.953 329.716ZM358.863 329.248H361.02C360.98 329.013 360.861 328.822 360.662 328.673C360.463 328.521 360.234 328.445 359.977 328.445C359.387 328.445 359.016 328.712 358.863 329.248ZM367.189 326.886C367.939 326.886 368.525 327.126 368.947 327.607C369.373 328.087 369.586 328.751 369.586 329.599V332.921H367.658V329.921C367.658 329.566 367.572 329.294 367.4 329.107C367.229 328.916 366.99 328.82 366.686 328.82C366.498 328.82 366.314 328.871 366.135 328.972C365.955 329.074 365.811 329.207 365.701 329.371V332.921H363.779V327.003H365.701V327.654C365.861 327.416 366.074 327.228 366.34 327.091C366.605 326.955 366.889 326.886 367.189 326.886ZM374.42 331.134L374.514 332.839C374.256 332.964 373.939 333.027 373.564 333.027C372.83 333.027 372.238 332.808 371.789 332.371C371.344 331.929 371.121 331.32 371.121 330.542V328.855H370.049V327.003H371.121V325.492H373.049V327.003H374.443V328.855H373.049V330.449C373.049 330.675 373.129 330.863 373.289 331.011C373.449 331.156 373.643 331.228 373.869 331.228C374.057 331.228 374.24 331.197 374.42 331.134Z" fill="white"/>
</g>
<g id="Graphic design">
<g id="Rectangle 39" filter="url(#filter1_b_0_1)">
<rect x="0.176758" y="73.4878" width="145.732" height="87.2664" rx="13.1383" fill="#F1F7F9" fill-opacity="0.27"/>
<rect x="0.603546" y="73.9146" width="144.878" height="86.4128" rx="12.7115" stroke="url(#paint3_linear_0_1)" stroke-opacity="0.5" stroke-width="0.853576"/>
</g>
<path id="Graphic design_2" d="M31.4919 117.904V116.287H35.2361V119.527C34.8572 120.047 34.3513 120.461 33.7185 120.769C33.0857 121.074 32.3982 121.226 31.656 121.226C31.0623 121.226 30.4998 121.113 29.9685 120.887C29.4412 120.656 28.988 120.348 28.6091 119.961C28.2341 119.57 27.9353 119.107 27.7126 118.572C27.4939 118.037 27.3845 117.474 27.3845 116.885C27.3845 116.295 27.4939 115.736 27.7126 115.209C27.9353 114.678 28.2341 114.223 28.6091 113.844C28.9841 113.461 29.4353 113.158 29.9626 112.935C30.49 112.713 31.0466 112.601 31.6326 112.601C32.2068 112.601 32.7458 112.697 33.2498 112.889C33.7576 113.076 34.1873 113.342 34.5388 113.685C34.8904 114.025 35.1306 114.412 35.2595 114.846L33.449 115.707C33.324 115.363 33.0955 115.09 32.7634 114.887C32.4353 114.683 32.0583 114.582 31.6326 114.582C31.0037 114.582 30.4861 114.799 30.0798 115.232C29.6775 115.662 29.4763 116.213 29.4763 116.885C29.4763 117.576 29.6794 118.146 30.0857 118.596C30.4958 119.041 31.0193 119.264 31.656 119.264C32.3005 119.264 32.8181 119.119 33.2087 118.83V117.904H31.4919ZM39.5369 115.086C39.822 115.086 40.0662 115.125 40.2693 115.203L40.1638 117.008C39.9138 116.918 39.6501 116.873 39.3728 116.873C39.1658 116.873 38.9412 116.949 38.699 117.101C38.4568 117.25 38.2771 117.457 38.1599 117.723V121.121H36.238V115.203H38.1599V115.877C38.2888 115.646 38.488 115.457 38.7576 115.308C39.0271 115.16 39.2869 115.086 39.5369 115.086ZM44.7166 115.203H46.6326V121.121H44.7166V120.482C44.5798 120.705 44.3591 120.887 44.0544 121.027C43.7498 121.168 43.4177 121.238 43.0583 121.238C42.5662 121.238 42.113 121.101 41.699 120.828C41.2888 120.551 40.9646 120.178 40.7263 119.709C40.488 119.236 40.3689 118.723 40.3689 118.168C40.3689 117.609 40.488 117.094 40.7263 116.621C40.9646 116.148 41.2888 115.775 41.699 115.502C42.113 115.224 42.5662 115.086 43.0583 115.086C43.4138 115.086 43.7439 115.156 44.0486 115.297C44.3572 115.437 44.5798 115.619 44.7166 115.842V115.203ZM43.4919 119.416C43.7498 119.416 43.988 119.355 44.2068 119.234C44.4255 119.113 44.5955 118.959 44.7166 118.771V117.57C44.5955 117.379 44.4275 117.223 44.2126 117.101C43.9978 116.98 43.7576 116.92 43.4919 116.92C43.1404 116.92 42.8455 117.039 42.6072 117.277C42.3728 117.512 42.2556 117.808 42.2556 118.168C42.2556 118.523 42.3748 118.82 42.613 119.058C42.8513 119.297 43.1443 119.416 43.4919 119.416ZM51.2615 115.086C51.7537 115.086 52.2068 115.224 52.6208 115.502C53.0349 115.775 53.3611 116.148 53.5994 116.621C53.8416 117.094 53.9626 117.609 53.9626 118.168C53.9626 118.723 53.8416 119.236 53.5994 119.709C53.3611 120.182 53.0349 120.555 52.6208 120.828C52.2068 121.101 51.7537 121.238 51.2615 121.238C50.9099 121.238 50.5798 121.168 50.2712 121.027C49.9666 120.887 49.7458 120.705 49.6091 120.482V122.99H47.6873V115.203H49.6091V115.842C49.7498 115.619 49.9705 115.437 50.2712 115.297C50.572 115.156 50.9021 115.086 51.2615 115.086ZM50.8337 119.416C51.1853 119.416 51.4802 119.297 51.7185 119.058C51.9607 118.816 52.0818 118.519 52.0818 118.168C52.0818 117.808 51.9607 117.512 51.7185 117.277C51.4802 117.039 51.1853 116.92 50.8337 116.92C50.572 116.92 50.3318 116.98 50.113 117.101C49.8982 117.219 49.7302 117.371 49.6091 117.558V118.76C49.7263 118.951 49.8943 119.109 50.113 119.234C50.3318 119.355 50.572 119.416 50.8337 119.416ZM58.1873 115.086C58.9373 115.086 59.5232 115.326 59.9451 115.807C60.3708 116.287 60.5837 116.951 60.5837 117.799V121.121H58.656V118.121C58.656 117.766 58.5701 117.494 58.3982 117.307C58.2302 117.115 57.9919 117.019 57.6833 117.019C57.4958 117.019 57.3123 117.07 57.1326 117.172C56.9529 117.273 56.8123 117.406 56.7107 117.57V121.121H54.7888V112.719H56.7107V115.842C56.8669 115.607 57.0759 115.424 57.3376 115.291C57.6033 115.154 57.8865 115.086 58.1873 115.086ZM61.8083 112.607C62.0388 112.381 62.3083 112.267 62.6169 112.267C62.9255 112.267 63.1931 112.381 63.4197 112.607C63.6462 112.834 63.7595 113.099 63.7595 113.404C63.7595 113.717 63.6462 113.988 63.4197 114.219C63.1931 114.445 62.9255 114.558 62.6169 114.558C62.3044 114.558 62.033 114.443 61.8025 114.213C61.5759 113.982 61.4626 113.713 61.4626 113.404C61.4626 113.099 61.5779 112.834 61.8083 112.607ZM61.6443 115.203H63.5662V121.121H61.6443V115.203ZM70.3337 119.486C70.1111 120.017 69.7458 120.443 69.238 120.764C68.7302 121.08 68.156 121.238 67.5154 121.238C66.6208 121.238 65.8787 120.947 65.2888 120.365C64.699 119.783 64.4041 119.055 64.4041 118.18C64.4041 117.293 64.699 116.557 65.2888 115.971C65.8787 115.381 66.6208 115.086 67.5154 115.086C68.0896 115.086 68.6091 115.219 69.074 115.484C69.5427 115.75 69.9021 116.109 70.1521 116.562L68.5232 117.482C68.4177 117.314 68.2771 117.182 68.1013 117.084C67.9255 116.982 67.7302 116.932 67.5154 116.932C67.1521 116.932 66.8572 117.051 66.6306 117.289C66.4041 117.523 66.2908 117.82 66.2908 118.18C66.2908 118.531 66.4041 118.822 66.6306 119.053C66.8611 119.279 67.156 119.392 67.5154 119.392C67.7654 119.392 67.9861 119.334 68.1775 119.217C68.3728 119.099 68.5193 118.937 68.6169 118.73L70.3337 119.486ZM77.5291 112.719H79.4451V121.121H77.5291V120.482C77.3923 120.705 77.1716 120.887 76.8669 121.027C76.5623 121.168 76.2302 121.238 75.8708 121.238C75.3787 121.238 74.9255 121.101 74.5115 120.828C74.1013 120.551 73.7771 120.178 73.5388 119.709C73.3005 119.236 73.1814 118.723 73.1814 118.168C73.1814 117.609 73.3005 117.094 73.5388 116.621C73.7771 116.148 74.1013 115.775 74.5115 115.502C74.9255 115.224 75.3787 115.086 75.8708 115.086C76.2263 115.086 76.5564 115.156 76.8611 115.297C77.1697 115.437 77.3923 115.619 77.5291 115.842V112.719ZM76.3044 119.416C76.5623 119.416 76.8005 119.355 77.0193 119.234C77.238 119.113 77.408 118.959 77.5291 118.771V117.57C77.408 117.379 77.24 117.223 77.0251 117.101C76.8103 116.98 76.5701 116.92 76.3044 116.92C75.9529 116.92 75.658 117.039 75.4197 117.277C75.1853 117.512 75.0681 117.808 75.0681 118.168C75.0681 118.523 75.1873 118.82 75.4255 119.058C75.6638 119.297 75.9568 119.416 76.3044 119.416ZM86.2009 117.916C86.2009 118.146 86.1775 118.394 86.1306 118.66H82.1111C82.2791 119.293 82.7146 119.609 83.4177 119.609C83.6443 119.609 83.863 119.56 84.074 119.463C84.2849 119.365 84.4294 119.246 84.5076 119.105L86.0193 120.031C85.8083 120.414 85.4685 120.711 84.9998 120.922C84.5349 121.133 83.9919 121.238 83.3708 121.238C82.4998 121.238 81.7615 120.939 81.156 120.342C80.5505 119.744 80.2478 119.012 80.2478 118.144C80.2478 117.281 80.5447 116.557 81.1384 115.971C81.7322 115.381 82.4646 115.086 83.3357 115.086C84.1365 115.086 84.8142 115.359 85.3689 115.906C85.9236 116.453 86.2009 117.123 86.2009 117.916ZM82.1111 117.447H84.2673C84.2283 117.213 84.1091 117.021 83.9099 116.873C83.7107 116.721 83.4822 116.644 83.2244 116.644C82.6345 116.644 82.2634 116.912 82.1111 117.447ZM89.324 121.238C88.2029 121.238 87.2986 120.996 86.6111 120.512L87.1501 119.176C87.7166 119.578 88.3845 119.779 89.1541 119.779C89.3728 119.779 89.5466 119.748 89.6755 119.685C89.8083 119.619 89.8748 119.533 89.8748 119.428C89.8748 119.334 89.8162 119.256 89.699 119.193C89.5857 119.131 89.4392 119.08 89.2595 119.041C89.0798 118.998 88.8806 118.953 88.6619 118.906C88.4431 118.859 88.2224 118.795 87.9998 118.713C87.781 118.627 87.5798 118.523 87.3962 118.402C87.2166 118.277 87.0681 118.105 86.9509 117.887C86.8337 117.668 86.7732 117.41 86.7693 117.113C86.7576 116.543 86.9822 116.062 87.4431 115.672C87.9041 115.281 88.49 115.086 89.2009 115.086C90.1619 115.086 90.9314 115.305 91.5095 115.742L90.9822 117.137C90.7361 116.969 90.4392 116.83 90.0916 116.721C89.7478 116.607 89.4236 116.551 89.1189 116.551C88.947 116.551 88.8103 116.582 88.7087 116.644C88.6072 116.707 88.5564 116.787 88.5564 116.885C88.5564 116.963 88.6013 117.035 88.6912 117.101C88.781 117.164 88.8982 117.217 89.0427 117.26C89.1912 117.299 89.3591 117.346 89.5466 117.4C89.7341 117.455 89.9236 117.512 90.115 117.57C90.3103 117.629 90.5017 117.709 90.6892 117.81C90.8767 117.908 91.0447 118.019 91.1931 118.144C91.3416 118.269 91.4607 118.432 91.5505 118.631C91.6443 118.83 91.6931 119.053 91.697 119.299C91.7009 119.869 91.4822 120.336 91.0408 120.699C90.5994 121.058 90.0271 121.238 89.324 121.238ZM92.6638 112.607C92.8943 112.381 93.1638 112.267 93.4724 112.267C93.781 112.267 94.0486 112.381 94.2751 112.607C94.5017 112.834 94.615 113.099 94.615 113.404C94.615 113.717 94.5017 113.988 94.2751 114.219C94.0486 114.445 93.781 114.558 93.4724 114.558C93.1599 114.558 92.8884 114.443 92.658 114.213C92.4314 113.982 92.3181 113.713 92.3181 113.404C92.3181 113.099 92.4333 112.834 92.6638 112.607ZM92.4998 115.203H94.4216V121.121H92.4998V115.203ZM99.6072 115.203H101.523V120.846C101.523 121.392 101.386 121.871 101.113 122.281C100.84 122.691 100.472 123 100.011 123.207C99.5544 123.418 99.0388 123.523 98.4646 123.523C97.9529 123.523 97.4392 123.441 96.9236 123.277C96.408 123.117 96.0056 122.898 95.7166 122.621L96.6306 121.279C97.1541 121.631 97.7419 121.807 98.3943 121.807C98.7068 121.807 98.9861 121.711 99.2322 121.519C99.4822 121.332 99.6072 121.096 99.6072 120.81V120.295C99.4705 120.514 99.2498 120.691 98.9451 120.828C98.6404 120.961 98.3083 121.027 97.949 121.027C97.2029 121.027 96.5681 120.738 96.0447 120.16C95.5212 119.582 95.2595 118.883 95.2595 118.062C95.2595 117.523 95.3787 117.025 95.6169 116.568C95.8552 116.111 96.1794 115.75 96.5896 115.484C97.0037 115.219 97.4568 115.086 97.949 115.086C98.3044 115.086 98.6345 115.154 98.9392 115.291C99.2478 115.424 99.4705 115.599 99.6072 115.818V115.203ZM98.3826 119.264C98.6443 119.264 98.8845 119.205 99.1033 119.088C99.322 118.971 99.49 118.82 99.6072 118.637V117.482C99.4861 117.295 99.3181 117.142 99.1033 117.025C98.8884 116.908 98.6482 116.849 98.3826 116.849C98.031 116.849 97.7361 116.965 97.4978 117.195C97.2634 117.426 97.1462 117.715 97.1462 118.062C97.1462 118.406 97.2654 118.693 97.5037 118.924C97.7419 119.15 98.0349 119.264 98.3826 119.264ZM105.988 115.086C106.738 115.086 107.324 115.326 107.746 115.807C108.172 116.287 108.385 116.951 108.385 117.799V121.121H106.457V118.121C106.457 117.766 106.371 117.494 106.199 117.307C106.027 117.115 105.789 117.019 105.484 117.019C105.297 117.019 105.113 117.07 104.933 117.172C104.754 117.273 104.609 117.406 104.5 117.57V121.121H102.578V115.203H104.5V115.853C104.66 115.615 104.873 115.428 105.138 115.291C105.404 115.154 105.687 115.086 105.988 115.086Z" fill="white"/>
</g>
</g>
</g>
<defs>
<filter id="filter0_b_0_1" x="246.397" y="278.46" width="159.389" height="100.924" filterUnits="userSpaceOnUse" color-interpolation-filters="sRGB">
<feFlood flood-opacity="0" result="BackgroundImageFix"/>
<feGaussianBlur in="BackgroundImageFix" stdDeviation="3.4143"/>
<feComposite in2="SourceAlpha" operator="in" result="effect1_backgroundBlur_0_1"/>
<feBlend mode="normal" in="SourceGraphic" in2="effect1_backgroundBlur_0_1" result="shape"/>
</filter>
<filter id="filter1_b_0_1" x="-6.65185" y="66.6592" width="159.389" height="100.924" filterUnits="userSpaceOnUse" color-interpolation-filters="sRGB">
<feFlood flood-opacity="0" result="BackgroundImageFix"/>
<feGaussianBlur in="BackgroundImageFix" stdDeviation="3.4143"/>
<feComposite in2="SourceAlpha" operator="in" result="effect1_backgroundBlur_0_1"/>
<feBlend mode="normal" in="SourceGraphic" in2="effect1_backgroundBlur_0_1" result="shape"/>
</filter>
<linearGradient id="paint0_linear_0_1" x1="221.61" y1="43.6978" x2="221.61" y2="389.281" gradientUnits="userSpaceOnUse">
<stop stop-color="#8AD344"/>
<stop offset="1" stop-color="#15E6CC"/>
</linearGradient>
<linearGradient id="paint1_linear_0_1" x1="221.61" y1="22.1697" x2="221.61" y2="410.809" gradientUnits="userSpaceOnUse">
<stop stop-color="#8AD344"/>
<stop offset="1" stop-color="#18E5C9"/>
</linearGradient>
<linearGradient id="paint2_linear_0_1" x1="326.092" y1="285.288" x2="390.868" y2="363.854" gradientUnits="userSpaceOnUse">
<stop stop-color="white"/>
<stop offset="0.447917" stop-color="white" stop-opacity="0"/>
<stop offset="1" stop-color="white"/>
</linearGradient>
<linearGradient id="paint3_linear_0_1" x1="73.0426" y1="73.4878" x2="137.819" y2="152.054" gradientUnits="userSpaceOnUse">
<stop stop-color="white"/>
<stop offset="0.447917" stop-color="white" stop-opacity="0"/>
<stop offset="1" stop-color="white"/>
</linearGradient>
</defs>
</svg>
