<svg xmlns="http://www.w3.org/2000/svg" viewBox="0 0 647.09 164.58"><defs><style>.cls-1{fill:#f2f2f9;}.cls-2{fill:#3af4c2;}</style></defs><g id="Layer_2" data-name="Layer 2"><g id="Layer_1-2" data-name="Layer 1"><path class="cls-1" d="M151.47,142.43c-.17.59-.35,1.16-.54,1.75a16.26,16.26,0,0,1-3,3.81,15.85,15.85,0,0,1-3.81,3A211.69,211.69,0,0,1,80.5,161,211.7,211.7,0,0,1,16.83,151,16.26,16.26,0,0,1,13,148a16.26,16.26,0,0,1-3-3.81q-2.06-6.52-3.69-13A89.79,89.79,0,0,1,29,86.2q-1.32-2.76-2.51-5.61A131.64,131.64,0,0,1,19.93,61q-3.09,2.67-6,5.57A114.65,114.65,0,0,0,0,83.45c0-1,0-2,0-3A211.67,211.67,0,0,1,10.06,16.85,15.65,15.65,0,0,1,13,13a16.26,16.26,0,0,1,3.81-3,216.6,216.6,0,0,1,22-5.73,113.84,113.84,0,0,0-2.5,23.82,115.33,115.33,0,0,0,1.74,20A114,114,0,0,0,45.2,72.47a.84.84,0,0,1,.09.19,114.6,114.6,0,0,0,60.8,60.79,113.35,113.35,0,0,0,44.48,9Z"/><path class="cls-2" d="M160.9,86.67a203.26,203.26,0,0,1-3.37,31.07c-2.29.18-4.62.28-7,.28A89.85,89.85,0,0,1,65.06.61Q72.8,0,80.5,0a211.41,211.41,0,0,1,63.66,10.08A15.85,15.85,0,0,1,148,13a15.65,15.65,0,0,1,3,3.81,219.14,219.14,0,0,1,8.17,36.09A113.85,113.85,0,0,0,94.75,33.12a114.29,114.29,0,0,0-13.38.78,68.78,68.78,0,0,0,6.42,23.91c2.29-.18,4.61-.26,7-.26A89.58,89.58,0,0,1,160.9,86.67Z"/><path class="cls-1" d="M255.63,57H232.86l-3.68,10.52H213.52l24.29-63h14.58l24.29,63H259.32Zm-4.86-13.68-6.48-18.53-6.57,18.53Z"/><path class="cls-1" d="M324.36,28.22a23.39,23.39,0,0,1,6.84,16.83,23.39,23.39,0,0,1-6.84,16.83c-4.58,4.76-9.89,7.1-15.83,7.1a16.8,16.8,0,0,1-13.32-6.21v4.77H281.54V1.68H297V25.53a16.64,16.64,0,0,1,11.52-4.41C314.47,21.12,319.78,23.46,324.36,28.22ZM313,52.25a10.37,10.37,0,0,0,2.7-7.2,10.76,10.76,0,0,0-2.7-7.29,8.83,8.83,0,0,0-6.66-3,8.51,8.51,0,0,0-6.57,3A10.42,10.42,0,0,0,297,45.05a10.06,10.06,0,0,0,2.79,7.2,8.31,8.31,0,0,0,6.57,3.06A8.61,8.61,0,0,0,313,52.25Z"/><path class="cls-1" d="M384.46,1.68V67.54H370.79V62.77A16.8,16.8,0,0,1,357.47,69c-5.94,0-11.15-2.34-15.74-7.1a23.9,23.9,0,0,1,0-33.66c4.59-4.76,9.8-7.1,15.74-7.1A16.64,16.64,0,0,1,369,25.53V1.68ZM366.29,52.25a10.37,10.37,0,0,0,2.7-7.2,10.76,10.76,0,0,0-2.7-7.29,8.83,8.83,0,0,0-6.66-3,8.51,8.51,0,0,0-6.57,3,10.42,10.42,0,0,0-2.79,7.29,10.06,10.06,0,0,0,2.79,7.2,8.31,8.31,0,0,0,6.57,3.06A8.61,8.61,0,0,0,366.29,52.25Z"/><path class="cls-1" d="M410.73,54.86a7.64,7.64,0,0,0,5,1.89A7,7,0,0,0,421.44,54h16.83a24.47,24.47,0,0,1-22.5,15,24.11,24.11,0,0,1-17.54-7,22.69,22.69,0,0,1-7.29-16.92,22.65,22.65,0,0,1,7.29-16.91,24.08,24.08,0,0,1,17.54-7,23.57,23.57,0,0,1,17.19,7,23.07,23.07,0,0,1,7,16.91,33.62,33.62,0,0,1-.45,4.86h-32.3A11.71,11.71,0,0,0,410.73,54.86Zm13-14.67a10.46,10.46,0,0,0-3.15-4.95,7.14,7.14,0,0,0-4.77-1.89,7.64,7.64,0,0,0-5,1.89,11.71,11.71,0,0,0-3.5,4.95Z"/><path class="cls-1" d="M449.87,64c-4.14-3.33-6.21-7.29-6.21-12h14.76a5,5,0,0,0,1.8,3.78,7.22,7.22,0,0,0,5,1.62,7,7,0,0,0,3.87-.9,2.65,2.65,0,0,0,1.34-2.16c0-.81-.53-1.53-1.7-2.07a34.8,34.8,0,0,0-6.39-1.71A39.74,39.74,0,0,1,456.26,49a29.83,29.83,0,0,1-5.67-2.43A11.82,11.82,0,0,1,446,42.26a11.29,11.29,0,0,1-1.62-6.12,11.93,11.93,0,0,1,3.33-8.45,18.37,18.37,0,0,1,7.74-5,29,29,0,0,1,9.27-1.53,23.06,23.06,0,0,1,14.57,4.77q5.94,4.86,5.94,11.6H470.47A4.79,4.79,0,0,0,469,34.07a6.21,6.21,0,0,0-4.41-1.44,5.51,5.51,0,0,0-3.42.9,2.77,2.77,0,0,0-1.26,2.16c0,1,.63,1.8,2,2.34a38,38,0,0,0,6.3,1.71A36.7,36.7,0,0,1,480,43.88,11.53,11.53,0,0,1,484.42,48a12,12,0,0,1,1.53,6,11.68,11.68,0,0,1-3.51,8.55,20,20,0,0,1-8.1,4.94A30.41,30.41,0,0,1,464.9,69C459,69,453.92,67.36,449.87,64Z"/><path class="cls-1" d="M492.7,1.68h15.47V67.54H492.7Z"/><path class="cls-1" d="M564.31,22.56v45H550.64V62.77A16.8,16.8,0,0,1,537.32,69c-5.94,0-11.16-2.34-15.74-7.1a23.9,23.9,0,0,1,0-33.66c4.58-4.76,9.8-7.1,15.74-7.1a16.8,16.8,0,0,1,13.32,6.21V22.56ZM546.14,52.25a10.37,10.37,0,0,0,2.7-7.2,10.76,10.76,0,0,0-2.7-7.29,8.83,8.83,0,0,0-6.66-3,8.51,8.51,0,0,0-6.57,3,10.42,10.42,0,0,0-2.79,7.29,10.06,10.06,0,0,0,2.79,7.2,8.31,8.31,0,0,0,6.57,3.06A8.61,8.61,0,0,0,546.14,52.25Z"/><path class="cls-1" d="M640.61,26.33c4.32,3.52,6.48,7.65,6.48,12.6V67.54H631.61V40.37a5,5,0,0,0-2-4,7.83,7.83,0,0,0-9.54,0,5,5,0,0,0-2,4V67.54H602.64V40.37a5,5,0,0,0-2-4,7.83,7.83,0,0,0-9.54,0,5,5,0,0,0-2,4V67.54H573.67v-45h13.67v3.33a14.29,14.29,0,0,1,10.71-4.77,18,18,0,0,1,13.14,5.76,18.55,18.55,0,0,1,13.67-5.76A24.48,24.48,0,0,1,640.61,26.33Z"/><path class="cls-1" d="M281.72,131.65a31.86,31.86,0,0,1-9.63,23.3,33.55,33.55,0,0,1-47.14-.09,32.27,32.27,0,0,1,0-46.52,33.09,33.09,0,0,1,23.84-9.62,32.46,32.46,0,0,1,18.44,5.58,32.94,32.94,0,0,1,12,14.75h-18a15.44,15.44,0,0,0-12.42-5.76,16.74,16.74,0,0,0-12.42,5.31,18.21,18.21,0,0,0-5.13,13.05,17.85,17.85,0,0,0,5.13,12.95,16.5,16.5,0,0,0,12.42,5.4,16.91,16.91,0,0,0,9.54-2.79,18.16,18.16,0,0,0,6.48-7.29H248.07V126.25h33.2A38.53,38.53,0,0,1,281.72,131.65Z"/><path class="cls-1" d="M334.62,118.15v45H320.94v-4.77a16.77,16.77,0,0,1-13.31,6.21c-5.94,0-11.16-2.34-15.75-7.11a23.91,23.91,0,0,1,0-33.65c4.59-4.77,9.81-7.11,15.75-7.11a16.77,16.77,0,0,1,13.31,6.21v-4.77Zm-18.17,29.69a10.37,10.37,0,0,0,2.7-7.2,10.73,10.73,0,0,0-2.7-7.28,8.83,8.83,0,0,0-6.66-3,8.51,8.51,0,0,0-6.57,3,10.4,10.4,0,0,0-2.79,7.28,10.06,10.06,0,0,0,2.79,7.2,8.31,8.31,0,0,0,6.57,3.06A8.61,8.61,0,0,0,316.45,147.84Z"/><path class="cls-1" d="M348.38,157.56a23.29,23.29,0,0,1,0-33.83,24.1,24.1,0,0,1,17.55-7,23.57,23.57,0,0,1,15.38,5.4,24.06,24.06,0,0,1,8.37,13.77h-15.2a9.56,9.56,0,0,0-3.51-4,9.12,9.12,0,0,0-5-1.44,8.51,8.51,0,0,0-6.57,3,10.4,10.4,0,0,0-2.79,7.28,10.06,10.06,0,0,0,2.79,7.2,8.31,8.31,0,0,0,6.57,3.06,9.21,9.21,0,0,0,5-1.53,9.37,9.37,0,0,0,3.51-4h15.2a23.56,23.56,0,0,1-8.37,13.68,23.18,23.18,0,0,1-15.38,5.49A24.1,24.1,0,0,1,348.38,157.56Z"/><path class="cls-1" d="M412.8,150.45a7.64,7.64,0,0,0,5,1.89,7,7,0,0,0,5.67-2.79h16.83a23.94,23.94,0,0,1-8.82,10.8,23.66,23.66,0,0,1-13.68,4.23,24.08,24.08,0,0,1-17.54-7,23.27,23.27,0,0,1,0-33.83,24.08,24.08,0,0,1,17.54-7,23.57,23.57,0,0,1,17.19,7,23.09,23.09,0,0,1,7,16.91,33.62,33.62,0,0,1-.45,4.86h-32.3A11.81,11.81,0,0,0,412.8,150.45Zm13-14.66a10.46,10.46,0,0,0-3.15-4.95,7.14,7.14,0,0,0-4.77-1.89,7.64,7.64,0,0,0-5,1.89,11.81,11.81,0,0,0-3.51,4.95Z"/><path class="cls-1" d="M515.37,121.93c4.32,3.51,6.48,7.65,6.48,12.6v28.61H506.37V136a5,5,0,0,0-2-4,7.82,7.82,0,0,0-9.53,0,5,5,0,0,0-2,4v27.17H477.4V136a5,5,0,0,0-2-4,7.82,7.82,0,0,0-9.53,0,5,5,0,0,0-2,4v27.17H448.43v-45h13.68v3.33a14.28,14.28,0,0,1,10.7-4.77A18,18,0,0,1,486,122.47a18.57,18.57,0,0,1,13.68-5.76A24.42,24.42,0,0,1,515.37,121.93Z"/><path class="cls-1" d="M531.83,110.68a8.3,8.3,0,0,1-2.61-6.12,8.49,8.49,0,0,1,2.61-6.2A8.22,8.22,0,0,1,538,95.84a8.61,8.61,0,0,1,8.73,8.72,8.22,8.22,0,0,1-2.52,6.12,8.5,8.5,0,0,1-6.21,2.61A8.3,8.3,0,0,1,531.83,110.68Zm-1.62,7.47h15.48v45H530.21Z"/><path class="cls-1" d="M556.21,162a8.69,8.69,0,1,1,6.21,2.61A8.5,8.5,0,0,1,556.21,162Z"/></g></g></svg>