<svg width="208" height="54" viewBox="0 0 208 54" fill="none" xmlns="http://www.w3.org/2000/svg">
<g clip-path="url(#clip0_77_19)">
<path d="M49.2592 45.88C49.2048 46.07 49.1473 46.2536 49.0865 46.4436C48.8293 46.8986 48.5058 47.3122 48.1268 47.6705C47.7722 48.0536 47.3611 48.3794 46.908 48.6366C40.3271 50.7498 33.4639 51.8369 26.5564 51.8602C19.6437 51.8395 12.7749 50.7535 6.18874 48.6399C5.73453 48.3815 5.32151 48.0558 4.96355 47.6738C4.58453 47.3154 4.26104 46.9018 4.00387 46.4468C3.56455 45.0471 3.17108 43.6516 2.82346 42.2604C3.81967 36.8326 6.33831 31.8052 10.0818 27.7722C9.80034 27.1797 9.5327 26.5775 9.27891 25.9656C8.41633 23.9213 7.71467 21.812 7.18041 19.657C6.52143 20.2302 5.88164 20.8281 5.26105 21.4507C3.60689 23.1155 2.11472 24.9357 0.804932 26.8866C0.804932 26.5646 0.804932 26.2425 0.804932 25.9205C0.833814 18.9682 1.91908 12.0612 4.02306 5.43928C4.27074 4.97937 4.58803 4.56109 4.96355 4.19946C5.31956 3.81791 5.73039 3.49226 6.18234 3.23337C8.49453 2.49469 10.8436 1.87876 13.22 1.38812C12.6862 3.90963 12.4182 6.48079 12.4203 9.05892C12.4195 11.218 12.6057 13.373 12.9769 15.4996C13.4463 18.1942 14.2135 20.8276 15.2641 23.3507C15.2762 23.3698 15.2859 23.3904 15.2929 23.4119C19.0067 32.231 25.9812 39.251 34.7424 42.9882C39.2428 44.91 44.0828 45.8958 48.9713 45.8865L49.2592 45.88Z" fill="#F1F7F9"/>
<path d="M52.2758 27.9236C52.1721 31.2816 51.8117 34.6267 51.1978 37.9291C50.4652 37.9871 49.7199 38.0193 48.9585 38.0193C44.4298 38.0168 39.9658 36.9371 35.9303 34.8681C31.8948 32.7992 28.402 29.7995 25.7367 26.1137C23.0714 22.4279 21.309 18.1603 20.5931 13.6586C19.8772 9.15696 20.2281 4.54872 21.6172 0.209501C23.2679 0.0785413 24.9142 0.0130615 26.5564 0.0130615C33.4694 0.0409305 40.3374 1.13568 46.9208 3.25914C47.3755 3.50765 47.7898 3.82477 48.1492 4.19948C48.5305 4.55578 48.8542 4.96972 49.1089 5.42642C50.304 9.21935 51.1783 13.1073 51.7224 17.0485C45.6491 12.8805 38.4652 10.6599 31.1149 10.6788C29.6845 10.6781 28.2553 10.762 26.8347 10.9299C27.051 13.6005 27.7468 16.2093 28.8884 18.6297C29.621 18.5718 30.3631 18.546 31.1276 18.546C35.1062 18.5455 39.0413 19.3791 42.6824 20.9936C46.3234 22.6081 49.5906 24.9682 52.2758 27.9236Z" fill="#9DE755"/>
<path d="M82.5794 18.3689H75.2954L74.1182 21.7566H69.1086L76.8789 1.46863H81.5429L89.3131 21.7566H83.7598L82.5794 18.3689ZM81.0247 13.9635L78.9518 7.99621L76.8501 13.9635H81.0247Z" fill="#F1F7F9"/>
<path d="M104.566 9.1008C105.271 9.81163 105.828 10.6573 106.204 11.5881C106.579 12.5189 106.766 13.516 106.754 14.5206C106.766 15.5252 106.579 16.5223 106.204 17.4531C105.828 18.3839 105.271 19.2296 104.566 19.9404C103.1 21.4733 101.402 22.2268 99.5016 22.2268C98.6873 22.2403 97.8805 22.0673 97.1424 21.7208C96.4042 21.3744 95.7539 20.8636 95.2406 20.227V21.7631H90.8677V0.554077H95.8132V8.23454C96.8155 7.30336 98.1346 6.79501 99.4984 6.81438C101.402 6.81438 103.1 7.56793 104.566 9.1008ZM100.932 16.8392C101.504 16.2063 101.813 15.3763 101.795 14.5206C101.808 13.657 101.5 12.8198 100.932 12.173C100.665 11.8683 100.338 11.6244 99.9702 11.4578C99.6027 11.2911 99.2041 11.2056 98.801 11.2069C98.4018 11.2029 98.0065 11.2874 97.6433 11.4543C97.2801 11.6213 96.9578 11.8666 96.6993 12.173C96.1132 12.8106 95.7956 13.6521 95.8132 14.5206C95.803 14.9472 95.8765 15.3716 96.0297 15.7695C96.1829 16.1674 96.4126 16.531 96.7057 16.8392C96.9594 17.1526 97.2802 17.4041 97.6442 17.5747C98.0082 17.7454 98.4059 17.8309 98.8074 17.8246C99.2116 17.8274 99.6115 17.7405 99.9785 17.5702C100.346 17.3999 100.671 17.1503 100.932 16.8392Z" fill="#F1F7F9"/>
<path d="M123.791 0.554077V21.7631H119.418V20.227C118.906 20.8648 118.256 21.3768 117.517 21.7244C116.779 22.072 115.972 22.246 115.157 22.2333C113.257 22.2333 111.59 21.4797 110.122 19.9468C108.702 18.5053 107.905 16.5573 107.905 14.527C107.905 12.4968 108.702 10.5488 110.122 9.10724C111.59 7.57437 113.257 6.82082 115.157 6.82082C116.521 6.79887 117.841 7.30493 118.846 8.23454V0.554077H123.791ZM117.979 16.8392C118.551 16.2063 118.86 15.3763 118.842 14.5206C118.855 13.657 118.547 12.8198 117.979 12.173C117.713 11.8683 117.385 11.6244 117.017 11.4578C116.65 11.2911 116.251 11.2056 115.848 11.2069C115.449 11.2029 115.054 11.2874 114.69 11.4543C114.327 11.6213 114.005 11.8666 113.746 12.173C113.158 12.8096 112.838 13.6512 112.854 14.5206C112.844 14.9472 112.917 15.3716 113.07 15.7695C113.224 16.1675 113.453 16.531 113.746 16.8392C114 17.1526 114.321 17.4041 114.685 17.5747C115.049 17.7454 115.447 17.8309 115.848 17.8246C116.253 17.8283 116.655 17.7419 117.023 17.5715C117.391 17.4012 117.717 17.1512 117.979 16.8392Z" fill="#F1F7F9"/>
<path d="M132.195 17.6797C132.638 18.0699 133.206 18.286 133.794 18.2884C134.147 18.2958 134.496 18.2195 134.813 18.0656C135.13 17.9117 135.407 17.6846 135.621 17.4028H141.005C140.409 18.8309 139.409 20.0507 138.129 20.9098C136.849 21.7689 135.346 22.2292 133.807 22.2332C132.769 22.257 131.738 22.0695 130.773 21.6822C129.809 21.2948 128.933 20.7156 128.196 19.979C127.451 19.2855 126.858 18.4422 126.456 17.5036C126.054 16.5651 125.853 15.5521 125.864 14.5302C125.852 13.5088 126.054 12.4962 126.456 11.5581C126.857 10.62 127.45 9.77737 128.196 9.08468C128.932 8.3477 129.809 7.76811 130.773 7.38074C131.737 6.99336 132.769 6.80618 133.807 6.83046C134.828 6.81199 135.841 7.00226 136.786 7.38974C137.732 7.77722 138.589 8.35385 139.306 9.08468C140.029 9.79059 140.6 10.6379 140.985 11.5744C141.37 12.5109 141.561 13.5168 141.545 14.5302C141.535 15.0548 141.487 15.5778 141.401 16.0953H131.069C131.3 16.7136 131.688 17.26 132.195 17.6797ZM136.354 12.9555C136.176 12.3383 135.826 11.7851 135.346 11.3615C134.93 10.9753 134.386 10.7584 133.82 10.7528C133.231 10.7552 132.664 10.9713 132.221 11.3615C131.715 11.7847 131.329 12.3344 131.101 12.9555H136.354Z" fill="#F1F7F9"/>
<path d="M144.716 20.6231C143.391 19.5507 142.729 18.2755 142.729 16.7587H147.451C147.454 16.9915 147.506 17.2208 147.606 17.4309C147.705 17.6411 147.849 17.8271 148.026 17.976C148.476 18.346 149.047 18.5323 149.626 18.4977C150.058 18.5235 150.488 18.4228 150.864 18.2079C150.988 18.1374 151.092 18.0367 151.166 17.9152C151.241 17.7936 151.285 17.6551 151.293 17.5123C151.293 17.2514 151.123 17.0196 150.749 16.8457C150.086 16.5972 149.402 16.4128 148.705 16.295C148.044 16.1794 147.394 16.0114 146.76 15.7926C146.13 15.5956 145.522 15.3333 144.946 15.0101C144.341 14.6896 143.833 14.2099 143.478 13.6221C143.122 13.0284 142.942 12.3445 142.959 11.6513C142.944 10.6383 143.327 9.66031 144.025 8.93012C144.701 8.19036 145.553 7.6362 146.501 7.31996C147.456 6.99456 148.457 6.82814 149.466 6.82726C151.148 6.78919 152.793 7.33119 154.127 8.36335C155.394 9.40673 156.027 10.6519 156.027 12.0989H151.305C151.306 11.8909 151.264 11.6849 151.183 11.4934C151.103 11.3019 150.984 11.1289 150.835 10.9847C150.442 10.6525 149.936 10.4863 149.424 10.521C149.038 10.4939 148.653 10.5958 148.33 10.8108C148.214 10.8868 148.116 10.9894 148.046 11.1102C147.976 11.231 147.936 11.3667 147.927 11.5064C147.927 11.8284 148.129 12.086 148.567 12.2599C149.222 12.5013 149.896 12.6856 150.582 12.8106C151.906 13.0347 153.182 13.4856 154.354 14.1438C154.934 14.4517 155.422 14.9097 155.768 15.4706C156.096 16.0605 156.265 16.7267 156.257 17.4028C156.266 17.9145 156.171 18.4226 155.978 18.896C155.785 19.3695 155.498 19.7982 155.134 20.1562C154.41 20.888 153.521 21.4336 152.543 21.747C151.569 22.0683 150.549 22.2325 149.524 22.2333C147.636 22.2333 146.011 21.7051 144.716 20.6231Z" fill="#F1F7F9"/>
<path d="M158.417 0.554077H163.365V21.7631H158.417V0.554077Z" fill="#F1F7F9"/>
<path d="M181.324 7.27809V21.7695H176.951V20.227C176.439 20.8647 175.788 21.3768 175.05 21.7244C174.312 22.0719 173.505 22.246 172.69 22.2332C170.79 22.2332 169.12 21.4797 167.655 19.9468C166.235 18.5053 165.438 16.5573 165.438 14.527C165.438 12.4968 166.235 10.5487 167.655 9.10723C169.12 7.57435 170.79 6.8208 172.69 6.8208C173.505 6.80732 174.311 6.98034 175.049 7.32678C175.788 7.67323 176.438 8.18404 176.951 8.82062V7.27809H181.324ZM175.512 16.8392C176.084 16.2063 176.393 15.3763 176.375 14.5206C176.388 13.657 176.08 12.8198 175.512 12.173C175.246 11.8683 174.918 11.6244 174.55 11.4578C174.183 11.2911 173.784 11.2056 173.381 11.2069C172.982 11.2029 172.587 11.2874 172.223 11.4543C171.86 11.6213 171.538 11.8666 171.279 12.173C170.691 12.8095 170.371 13.6512 170.387 14.5206C170.377 14.9472 170.45 15.3716 170.603 15.7695C170.757 16.1674 170.986 16.531 171.279 16.8392C171.533 17.1526 171.854 17.4041 172.218 17.5747C172.582 17.7454 172.98 17.8308 173.381 17.8246C173.786 17.8283 174.187 17.7419 174.556 17.5715C174.924 17.4012 175.25 17.1511 175.512 16.8392Z" fill="#F1F7F9"/>
<path d="M205.732 8.49215C207.114 9.6257 207.805 10.9557 207.805 12.5498V21.7631H202.853V13.0135C202.853 12.7635 202.795 12.517 202.684 12.2934C202.573 12.0698 202.412 11.8753 202.213 11.7254C201.776 11.3869 201.239 11.2035 200.687 11.2035C200.135 11.2035 199.599 11.3869 199.161 11.7254C198.963 11.8753 198.802 12.0698 198.69 12.2934C198.579 12.517 198.522 12.7635 198.522 13.0135V21.7631H193.586V13.0135C193.586 12.7635 193.528 12.517 193.417 12.2934C193.306 12.0698 193.145 11.8753 192.946 11.7254C192.508 11.3869 191.972 11.2035 191.42 11.2035C190.868 11.2035 190.332 11.3869 189.894 11.7254C189.695 11.8753 189.534 12.0698 189.423 12.2934C189.312 12.517 189.254 12.7635 189.254 13.0135V21.7631H184.318V7.27165H188.691V8.34402C189.122 7.85865 189.65 7.47077 190.241 7.20598C190.831 6.94119 191.471 6.80552 192.117 6.80793C192.907 6.81048 193.687 6.97647 194.411 7.29557C195.134 7.61467 195.784 8.08006 196.321 8.66283C196.884 8.06742 197.563 7.59536 198.315 7.27619C199.067 6.95702 199.877 6.79761 200.694 6.80793C202.517 6.76166 204.299 7.35731 205.732 8.49215Z" fill="#F1F7F9"/>
<path d="M90.9254 42.4086C90.946 43.8044 90.6834 45.1899 90.1537 46.48C89.624 47.7702 88.8384 48.938 87.8448 49.9119C85.8324 51.9042 83.1214 53.0182 80.299 53.0128C77.4765 53.0074 74.7698 51.8829 72.765 49.8829C71.7634 48.9133 70.9666 47.7501 70.4223 46.4629C69.878 45.1758 69.5974 43.7914 69.5974 42.3925C69.5974 40.9936 69.878 39.6091 70.4223 38.322C70.9666 37.0349 71.7634 35.8716 72.765 34.902C73.7666 33.8996 74.9573 33.109 76.2671 32.577C77.5768 32.045 78.9791 31.7821 80.3913 31.8041C82.4929 31.7883 84.5498 32.4149 86.2901 33.601C88.0057 34.77 89.3409 36.4222 90.1288 38.351H84.3708C83.8948 37.7551 83.2887 37.2777 82.5996 36.956C81.9105 36.6343 81.157 36.4769 80.3977 36.4961C79.6538 36.4876 78.9163 36.6353 78.2322 36.9297C77.5481 37.2242 76.9325 37.6588 76.4246 38.2061C75.8888 38.7626 75.4678 39.4206 75.1861 40.1419C74.9045 40.8633 74.7676 41.6337 74.7835 42.4086C74.7654 43.1789 74.9014 43.9451 75.1833 44.6615C75.4652 45.3779 75.8874 46.03 76.4246 46.5789C76.9269 47.1352 77.5408 47.5779 78.2257 47.8776C78.9106 48.1774 79.6509 48.3274 80.3977 48.3179C81.4814 48.3329 82.5446 48.0199 83.4495 47.4194C84.3402 46.8418 85.057 46.03 85.5224 45.0718H80.161V40.6696H90.7814C90.8699 41.2451 90.918 41.8262 90.9254 42.4086Z" fill="#F1F7F9"/>
<path d="M107.848 38.0611V52.5525H103.472V51.0165C102.959 51.6531 102.31 52.1641 101.572 52.5106C100.834 52.857 100.028 53.03 99.2139 53.0163C97.3137 53.0163 95.6439 52.2627 94.1756 50.7266C92.7571 49.2848 91.9614 47.3377 91.9614 45.3084C91.9614 43.2792 92.7571 41.332 94.1756 39.8903C95.6439 38.3542 97.3137 37.6006 99.2139 37.6006C100.028 37.5869 100.834 37.7598 101.572 38.1063C102.31 38.4528 102.959 38.9637 103.472 39.6004V38.0643L107.848 38.0611ZM102.035 47.6222C102.608 46.9893 102.917 46.1594 102.899 45.3036C102.912 44.441 102.604 43.6047 102.035 42.9592C101.769 42.6545 101.441 42.4106 101.074 42.244C100.707 42.0774 100.308 41.9918 99.9049 41.9931C99.5056 41.9891 99.1104 42.0736 98.7472 42.2406C98.384 42.4075 98.0617 42.6529 97.8032 42.9592C97.215 43.5946 96.8949 44.4352 96.9107 45.3036C96.9004 45.7302 96.974 46.1547 97.1271 46.5526C97.2803 46.9505 97.51 47.314 97.8032 47.6222C98.0568 47.9356 98.3777 48.1871 98.7417 48.3578C99.1057 48.5284 99.5034 48.6139 99.9049 48.6077C100.31 48.6113 100.711 48.5249 101.079 48.3546C101.448 48.1842 101.774 47.9342 102.035 47.6222Z" fill="#F1F7F9"/>
<path d="M112.249 50.7524C111.514 50.0515 110.928 49.207 110.527 48.2704C110.127 47.3338 109.92 46.3249 109.92 45.3052C109.92 44.2856 110.127 43.2767 110.527 42.3401C110.928 41.4035 111.514 40.559 112.249 39.8581C112.986 39.121 113.863 38.5414 114.828 38.154C115.793 37.7666 116.825 37.5795 117.864 37.6038C119.657 37.576 121.401 38.1926 122.783 39.3428C124.156 40.4672 125.101 42.0332 125.461 43.7772H120.599C120.353 43.2495 119.964 42.8028 119.476 42.4891C118.999 42.1814 118.443 42.0203 117.876 42.0253C117.477 42.0214 117.082 42.1058 116.719 42.2728C116.355 42.4398 116.033 42.6851 115.775 42.9914C115.186 43.6268 114.866 44.4674 114.882 45.3358C114.872 45.7624 114.945 46.1869 115.099 46.5848C115.252 46.9827 115.481 47.3462 115.775 47.6545C116.028 47.9678 116.349 48.2193 116.713 48.39C117.077 48.5607 117.475 48.6461 117.876 48.6399C118.446 48.6347 119.001 48.4635 119.476 48.1472C119.966 47.8361 120.356 47.3886 120.599 46.859H125.461C125.108 48.5975 124.16 50.1564 122.783 51.2644C121.411 52.4351 119.662 53.0634 117.864 53.0324C116.823 53.0534 115.79 52.8622 114.825 52.4703C113.86 52.0785 112.984 51.4941 112.249 50.7524Z" fill="#F1F7F9"/>
<path d="M132.857 48.4627C133.3 48.8529 133.868 49.069 134.456 49.0714C134.808 49.0753 135.155 48.996 135.47 48.8399C135.785 48.6838 136.059 48.4553 136.27 48.1729H141.654C141.077 49.5884 140.095 50.799 138.833 51.6508C137.549 52.549 136.02 53.0249 134.456 53.013C133.419 53.0373 132.387 52.8501 131.422 52.4628C130.458 52.0754 129.582 51.4958 128.846 50.7588C128.109 50.0584 127.522 49.214 127.121 48.2774C126.72 47.3407 126.514 46.3315 126.514 45.3116C126.514 44.2917 126.72 43.2825 127.121 42.3459C127.522 41.4093 128.109 40.5649 128.846 39.8645C129.582 39.1275 130.458 38.5479 131.422 38.1605C132.387 37.7731 133.419 37.586 134.456 37.6102C135.477 37.5918 136.49 37.782 137.436 38.1695C138.381 38.557 139.238 39.1336 139.955 39.8645C140.678 40.5706 141.249 41.4179 141.634 42.3544C142.019 43.2908 142.21 44.2966 142.195 45.31C142.184 45.8345 142.136 46.3576 142.051 46.8751H131.718C131.954 47.4953 132.346 48.0427 132.857 48.4627ZM137.016 43.7417C136.838 43.1245 136.488 42.5714 136.008 42.1477C135.592 41.7615 135.048 41.5446 134.482 41.539C133.894 41.5414 133.326 41.7575 132.883 42.1477C132.377 42.5715 131.99 43.121 131.76 43.7417H137.016Z" fill="#F1F7F9"/>
<path d="M165.669 39.2784C167.051 40.4087 167.741 41.7419 167.741 43.336V52.5493H162.79V43.8094C162.79 43.5594 162.732 43.3129 162.621 43.0893C162.51 42.8657 162.348 42.6712 162.15 42.5213C161.713 42.1831 161.177 41.9998 160.625 41.9998C160.074 41.9998 159.538 42.1831 159.101 42.5213C158.903 42.6712 158.741 42.8657 158.63 43.0893C158.519 43.3129 158.461 43.5594 158.461 43.8094V52.559H153.522V43.8094C153.522 43.5594 153.464 43.3129 153.353 43.0893C153.242 42.8657 153.081 42.6712 152.882 42.5213C152.445 42.1831 151.909 41.9998 151.358 41.9998C150.807 41.9998 150.271 42.1831 149.834 42.5213C149.635 42.6712 149.474 42.8657 149.363 43.0893C149.252 43.3129 149.194 43.5594 149.194 43.8094V52.559H144.255V38.0676H148.631V39.1399C149.061 38.6548 149.589 38.2671 150.179 38.0023C150.769 37.7375 151.408 37.6017 152.054 37.6038C152.846 37.6034 153.629 37.7673 154.355 38.0853C155.081 38.4034 155.734 38.8687 156.273 39.4523C156.837 38.8568 157.516 38.3847 158.269 38.0656C159.022 37.7464 159.833 37.587 160.649 37.5974C162.466 37.5531 164.241 38.1475 165.669 39.2784Z" fill="#F1F7F9"/>
<path d="M170.934 35.6555C170.667 35.4028 170.455 35.0972 170.312 34.758C170.168 34.4189 170.096 34.0534 170.099 33.6847C170.096 33.3122 170.168 32.943 170.312 32.5996C170.455 32.2563 170.667 31.9461 170.934 31.6881C171.188 31.4216 171.495 31.2117 171.835 31.0719C172.175 30.9322 172.541 30.8656 172.908 30.8766C173.276 30.8714 173.641 30.9405 173.982 31.0797C174.323 31.2189 174.632 31.4255 174.893 31.6873C175.153 31.9491 175.359 32.2607 175.497 32.6037C175.636 32.9468 175.705 33.3143 175.7 33.6847C175.709 34.0515 175.642 34.4161 175.503 34.7554C175.364 35.0947 175.157 35.4012 174.894 35.6555C174.637 35.9245 174.329 36.1378 173.987 36.2824C173.646 36.4269 173.278 36.4996 172.908 36.496C172.539 36.5017 172.173 36.4299 171.833 36.2852C171.493 36.1405 171.187 35.926 170.934 35.6555ZM170.416 38.0611H175.368V52.5526H170.416V38.0611Z" fill="#F1F7F9"/>
<path d="M178.733 52.1822C178.284 51.7205 178.007 51.1166 177.95 50.473C177.893 49.8294 178.059 49.1858 178.42 48.6513C178.781 48.1169 179.314 47.7246 179.929 47.5411C180.545 47.3575 181.204 47.394 181.796 47.6444C182.388 47.8947 182.875 48.3435 183.176 48.9146C183.476 49.4856 183.571 50.1437 183.444 50.7771C183.317 51.4105 182.977 51.9803 182.48 52.3896C181.983 52.7989 181.361 53.0226 180.719 53.0227C180.349 53.0263 179.982 52.9535 179.64 52.809C179.298 52.6645 178.99 52.4512 178.733 52.1822Z" fill="#F1F7F9"/>
</g>
<defs>
<clipPath id="clip0_77_19">
<rect width="207" height="53" fill="white" transform="translate(0.804932 0.0130615)"/>
</clipPath>
</defs>
</svg>
