<svg width="237" height="402" viewBox="0 0 237 402" fill="none" xmlns="http://www.w3.org/2000/svg">
<path fill-rule="evenodd" clip-rule="evenodd" d="M99.859 2.16204C49.881 10.024 9.77601 50.4 2.14001 100.543C0.55001 110.987 0.55001 291.013 2.14001 301.457C9.82901 351.949 50.083 392.203 100.575 399.891C160.592 409.03 217.441 371.58 232.902 312.719C236.589 298.683 236.578 299.017 236.578 201C236.578 102.983 236.589 103.317 232.902 89.281C217.394 30.241 160.055 -7.30596 99.859 2.16204ZM136.433 27.277C172.991 34.141 202.067 63.217 210.156 101C212.349 111.239 212.349 290.761 210.156 301C195.026 371.667 113.461 400.039 58.153 353.874C42.659 340.941 32.59 323.7 27.046 300.609C25.424 293.855 24.486 126.276 25.983 110.766C31.344 55.215 81.861 17.029 136.433 27.277Z" fill="#F1F7F9"/>
<rect x="106.006" y="112.764" width="25.5132" height="74.8962" rx="12.7566" fill="#F1F7F9"/>
</svg>
