<svg xmlns="http://www.w3.org/2000/svg" viewBox="0 0 364.97 345.41"><defs><style>.cls-1{fill:#e0e0e0;}.cls-2{fill:#ba68c8;}.cls-3{fill:#8cb75e;}.cls-4{fill:#4a5b39;}.cls-5{fill:#9de756;}.cls-6{opacity:0.5;}.cls-7{fill:#fff;}.cls-8{fill:#56e789;}.cls-9{fill:#37474f;}.cls-10{fill:#455a64;}.cls-11{isolation:isolate;}.cls-12{opacity:0.4;}.cls-13{opacity:0.1;}.cls-14{opacity:0.2;}.cls-15{fill:#f0f0f0;}.cls-16{opacity:0.3;}.cls-17{fill:#787878;}</style></defs><g id="Layer_2" data-name="Layer 2"><g id="Server"><path class="cls-1" d="M3.64,322.56l3.4,2a4.83,4.83,0,0,0,4.85,0l204.38-118a1.94,1.94,0,0,0,0-3.36l-3.47-2a4.86,4.86,0,0,0-4.88,0L3.64,319.2A1.94,1.94,0,0,0,3.64,322.56Z"/><path class="cls-1" d="M25.72,344.51l1.18.68a1.7,1.7,0,0,0,1.69,0L99.5,304.25a.68.68,0,0,0,0-1.17l-1.21-.7a1.68,1.68,0,0,0-1.69,0l-70.88,41A.68.68,0,0,0,25.72,344.51Z"/><path class="cls-2" d="M7.84,286.43,7.49,129.65a15.43,15.43,0,0,1,7-12.12L209.37,5.3c1.92-1.11,3.67-1.22,4.94-.51L207,.54h0c-1.29-.81-3.1-.74-5.1.42L7,113.18A15.45,15.45,0,0,0,0,125.3L.35,282.08c0,2.1.72,3.6,1.87,4.38h0a3.64,3.64,0,0,0,.39.23l7.24,4.21C8.62,290.16,7.85,288.62,7.84,286.43Z"/><path class="cls-3" d="M207,.54h0c-1.29-.81-3.1-.74-5.1.42L7,113.18a14.75,14.75,0,0,0-5.35,6l7.49,4.33a14.64,14.64,0,0,1,5.36-6L209.37,5.3c1.92-1.11,3.67-1.22,4.94-.51Z"/><path class="cls-3" d="M0,125.3.35,282.08c0,2.1.72,3.6,1.87,4.38h0a3.64,3.64,0,0,0,.39.23l7.24,4.21c-1.24-.74-2-2.28-2-4.47L7.49,129.65a13.82,13.82,0,0,1,1.64-6.16l-7.49-4.33A13.61,13.61,0,0,0,0,125.3Z"/><path class="cls-4" d="M7.51,138.73l.33,147.7c0,2.19.78,3.73,2,4.47L10,291l0,0c1.26.67,3,.54,4.86-.55L209.77,178.21a15.42,15.42,0,0,0,7-12.11l-.33-147.94Z"/><path class="cls-5" d="M216.41,9.31c0-2.19-.78-3.73-2-4.47l0,0-.05,0c-1.27-.71-3-.6-4.94.51L14.49,117.53a15.43,15.43,0,0,0-7,12.12l0,9.08L216.43,18.16Z"/><g class="cls-6"><path class="cls-7" d="M16.77,123.88c1.06-.61,1.92-.12,1.92,1.1a4.21,4.21,0,0,1-1.91,3.3c-1.05.61-1.91.12-1.92-1.09A4.21,4.21,0,0,1,16.77,123.88Z"/><path class="cls-7" d="M22,120.87c1.05-.61,1.91-.12,1.92,1.09a4.21,4.21,0,0,1-1.91,3.3c-1.06.61-1.92.12-1.92-1.09A4.21,4.21,0,0,1,22,120.87Z"/><path class="cls-7" d="M27.22,117.85c1.06-.61,1.92-.12,1.92,1.09a4.2,4.2,0,0,1-1.9,3.31c-1.06.61-1.92.12-1.92-1.1A4.2,4.2,0,0,1,27.22,117.85Z"/></g><path class="cls-7" d="M16.77,123.88c1.06-.61,1.92-.12,1.92,1.1a4.21,4.21,0,0,1-1.91,3.3c-1.05.61-1.91.12-1.92-1.09A4.21,4.21,0,0,1,16.77,123.88Z"/><path class="cls-7" d="M22,120.87c1.05-.61,1.91-.12,1.92,1.09a4.21,4.21,0,0,1-1.91,3.3c-1.06.61-1.92.12-1.92-1.09A4.21,4.21,0,0,1,22,120.87Z"/><path class="cls-7" d="M27.22,117.85c1.06-.61,1.92-.12,1.92,1.09a4.2,4.2,0,0,1-1.9,3.31c-1.06.61-1.92.12-1.92-1.1A4.2,4.2,0,0,1,27.22,117.85Z"/><polygon class="cls-7" points="155.92 152.47 183.32 136.65 183.31 133.18 155.91 149 155.92 152.47"/><polygon class="cls-7" points="194.91 126.48 187.16 130.96 187.17 134.43 194.92 129.95 194.91 126.48"/><polygon class="cls-7" points="143.52 168.23 207 131.58 206.99 128.11 143.51 164.76 143.52 168.23"/><polygon class="cls-7" points="137.66 171.6 137.66 168.14 129.9 172.61 129.91 176.08 137.66 171.6"/><polygon class="cls-7" points="151.86 151.34 114.47 172.93 114.48 176.4 151.87 154.81 151.86 151.34"/><polygon class="cls-7" points="118.3 153.52 110.54 158 110.55 161.47 118.31 156.99 118.3 153.52"/><polygon class="cls-7" points="109.19 179.45 109.18 175.98 84.69 190.12 84.7 193.59 109.19 179.45"/><polygon class="cls-7" points="73.37 213.85 73.38 217.32 97 203.68 96.99 200.21 73.37 213.85"/><polygon class="cls-7" points="124.08 179.45 124.07 175.98 84.72 198.7 84.73 202.17 124.08 179.45"/><polygon class="cls-5" points="164.64 138.84 172.4 134.36 172.39 130.89 164.63 135.37 164.64 138.84"/><polygon class="cls-5" points="136.13 151.83 136.13 155.29 158.63 142.31 158.62 138.84 136.13 151.83"/><polygon class="cls-5" points="103.21 174.31 128.78 159.54 128.77 156.07 103.2 170.84 103.21 174.31"/><polygon class="cls-5" points="95.8 178.59 95.78 175.12 73.3 188.1 73.31 191.57 95.8 178.59"/><polygon class="cls-7" points="63.59 188.58 104.91 164.73 104.9 161.26 63.58 185.12 63.59 188.58"/><polygon class="cls-7" points="128.68 125.21 128.67 121.74 62.71 159.82 62.72 163.29 128.68 125.21"/><polygon class="cls-7" points="86.09 141.2 86.08 137.73 62.69 151.23 62.7 154.71 86.09 141.2"/><polygon class="cls-7" points="92.82 125.24 62.66 142.65 62.67 146.13 92.83 128.71 92.82 125.24"/><polygon class="cls-7" points="94.1 136.58 157.59 99.93 157.57 96.45 94.09 133.1 94.1 136.58"/><polygon class="cls-7" points="116.68 111.46 100.08 121.05 100.09 124.52 116.69 114.94 116.68 111.46"/><polygon class="cls-5" points="78.27 107.85 38.92 130.57 38.93 134.04 78.28 111.32 78.27 107.85"/><polygon class="cls-5" points="62.84 125.36 38.95 139.15 38.96 142.62 62.85 128.83 62.84 125.36"/><polygon class="cls-5" points="73.24 122.82 147.53 79.94 147.52 76.47 73.23 119.36 73.24 122.82"/><polygon class="cls-5" points="178.4 62.11 178.39 58.64 154.85 72.23 154.86 75.7 178.4 62.11"/><polygon class="cls-5" points="197.39 51.15 197.38 47.68 185.61 54.47 185.62 57.94 197.39 51.15"/><polygon class="cls-7" points="74.36 127.3 50.92 140.84 50.93 144.31 74.37 130.77 74.36 127.3"/><polygon class="cls-7" points="174.1 86.91 163.65 92.94 163.66 96.42 174.11 90.39 174.1 86.91"/><polygon class="cls-7" points="206.83 71.5 206.82 68.02 179.41 83.84 179.42 87.32 206.83 71.5"/><polygon class="cls-5" points="149.05 130.65 149.04 127.17 85.13 164.07 85.14 167.54 149.05 130.65"/><polygon class="cls-5" points="77.84 168.28 51.04 183.75 51.05 187.23 77.85 171.75 77.84 168.28"/><polygon class="cls-5" points="64.38 167.45 51.01 175.17 51.02 178.64 64.39 170.92 64.38 167.45"/><polygon class="cls-5" points="162.81 182.88 170.57 178.41 170.56 174.93 162.8 179.41 162.81 182.88"/><polygon class="cls-5" points="157.6 185.89 157.59 182.42 132.73 196.77 132.74 200.25 157.6 185.89"/><polygon class="cls-5" points="207.08 162.44 98.02 225.41 98.03 228.88 207.09 165.91 207.08 162.44"/><polygon class="cls-5" points="127.54 199.77 98 216.82 98 220.3 127.55 203.24 127.54 199.77"/><polygon class="cls-5" points="73.44 239.6 73.45 243.07 92.51 232.07 92.5 228.6 73.44 239.6"/><polygon class="cls-5" points="92.47 220.01 62.93 237.07 62.94 240.55 92.48 223.49 92.47 220.01"/><polygon class="cls-5" points="78.41 219.53 62.91 228.49 62.91 231.96 78.42 223.01 78.41 219.53"/><polygon class="cls-7" points="21.48 171.77 21.5 180.36 21.48 171.77 21.48 171.77"/><polygon class="cls-7" points="21.51 183.67 28.99 179.35 28.99 179.35 21.51 183.67 21.54 192.26 21.54 192.26 21.51 183.67"/><rect class="cls-7" x="20.97" y="193.4" width="8.64" transform="translate(-93.31 38.55) rotate(-30)"/><rect class="cls-7" x="21.09" y="236.66" width="8.64" transform="translate(-114.93 44.41) rotate(-30)"/><polygon class="cls-7" points="28.91 152.26 21.43 156.57 28.91 152.26 28.91 152.26"/><polygon class="cls-7" points="25.76 157.38 21.44 159.87 21.47 168.47 21.44 159.87 25.76 157.38"/><polygon class="cls-7" points="28.95 164.15 21.47 168.47 28.95 164.15 28.95 164.15"/><polygon class="cls-7" points="28.98 176.05 21.5 180.36 28.98 176.05 28.98 176.05"/><polygon class="cls-7" points="26.02 248.22 21.7 250.72 21.73 259.31 21.73 259.31 21.7 250.72 26.02 248.22"/><rect class="cls-7" x="21.02" y="212.87" width="8.64" transform="matrix(0.87, -0.5, 0.5, 0.87, -103.04, 41.19)"/><rect class="cls-7" x="21.06" y="224.77" width="8.64" transform="translate(-108.98 42.8) rotate(-30)"/><polygon class="cls-7" points="28.96 167.45 21.48 171.77 21.5 180.36 28.98 176.05 28.96 167.45"/><polygon class="cls-7" points="21.54 192.26 29.02 187.94 28.99 179.35 21.51 183.67 21.54 192.26"/><polygon class="cls-7" points="29.11 222.61 21.64 226.93 21.66 235.52 29.14 231.2 29.11 222.61"/><polygon class="cls-7" points="21.69 247.41 29.17 243.09 29.15 234.5 21.67 238.82 21.69 247.41"/><polygon class="cls-7" points="29.08 210.71 21.6 215.03 21.63 223.62 29.11 219.31 29.08 210.71"/><path class="cls-8" d="M31.48,206.55l-12.3,7.1.17,61.72,12.31-7.1ZM29.15,234.5l0,8.59-7.48,4.32,0-8.59h0l7.48-4.32ZM21.6,215h0l7.48-4.32h0l0,8.59-7.47,4.32Zm0,11.9h0l7.48-4.32h0l0,8.59-7.48,4.32Zm.1,32.38,0-8.59,4.32-2.5,3.16-1.82,0,8.59-7.48,4.32Zm0,11.89,0-8.59,7.48-4.32,0,8.59Z"/><path class="cls-8" d="M31.29,139.5,19,146.6l.17,61.72,12.31-7.1ZM21.41,148l7.48-4.32,0,8.6h0l-7.47,4.32Zm0,11.89,4.32-2.49,3.16-1.83,0,8.6h0l-7.48,4.32Zm0,11.9h0L29,167.45l0,8.6h0l-7.48,4.31Zm0,11.9L29,179.35h0l0,8.59-7.48,4.32h0Zm0,11.89h0L29,191.24h0l0,8.59-7.48,4.32Z"/><polygon class="cls-7" points="28.95 164.15 28.92 155.55 25.76 157.38 21.44 159.87 21.47 168.47 28.95 164.15 28.95 164.15"/><polygon class="cls-7" points="31.29 139.5 31.28 134.71 18.98 141.81 18.99 146.6 31.29 139.5 31.29 139.5"/><polygon class="cls-7" points="28.91 152.26 28.89 143.66 21.41 147.98 21.43 156.57 28.91 152.26 28.91 152.26"/><polygon class="cls-7" points="29.02 191.24 29.02 191.24 21.55 195.56 21.55 195.56 21.57 204.15 29.05 199.84 29.02 191.24"/><polygon class="cls-7" points="29.21 254.99 29.18 246.4 26.02 248.22 21.7 250.72 21.73 259.31 21.73 259.31 29.21 254.99"/><polygon class="cls-7" points="21.74 262.61 21.76 271.2 29.24 266.88 29.21 258.29 21.74 262.61"/><path class="cls-2" d="M177.4,84.05V80.73a4.56,4.56,0,0,1,2.07-3.57l59.75-34.5a1.41,1.41,0,0,1,1.5-.11h0l2,1.46s-1.32.83-1.32.86l-.13,0v4.69L179.37,85.26Z"/><path class="cls-3" d="M177.4,84.05V80.73a4.56,4.56,0,0,1,2.07-3.57l59.75-34.5a1.41,1.41,0,0,1,1.5-.11h0l2,1.46s-1.32.83-1.32.86l-.13,0v4.69L179.37,85.26Z"/><path class="cls-9" d="M179.37,85.26l61.92-35.74L241.41,92a4.52,4.52,0,0,1-2,3.57l-58.84,34,.54.67-1,1.41-2-1.45h0a1.48,1.48,0,0,1-.54-1.28l-.13-44.82Z"/><path class="cls-2" d="M181.43,78.58a4.53,4.53,0,0,0-2.06,3.57v3.11l63.89-36.88V45.27c0-1.31-.93-1.84-2.07-1.18Z"/><path class="cls-5" d="M181.43,78.58a4.53,4.53,0,0,0-2.06,3.57v3.11l63.89-36.88V45.27c0-1.31-.93-1.84-2.07-1.18Z"/><path class="cls-10" d="M179.37,85.26l.13,45c0,1.31.94,1.84,2.08,1.18L241.33,97a4.51,4.51,0,0,0,2-3.56l-.12-45Z"/><polygon class="cls-8" points="222.28 97.75 222.29 99.63 240.02 89.39 240.02 87.51 222.28 97.75"/><g class="cls-11"><polygon class="cls-8" points="222.25 86.11 222.25 87.99 239.99 77.75 239.98 75.87 222.25 86.11"/><polygon class="cls-8" points="227.56 74.92 227.57 76.8 239.97 69.64 239.96 67.76 227.56 74.92"/><polygon class="cls-8" points="205.51 111.5 205.51 113.38 228.33 100.2 228.32 98.33 205.51 111.5"/><polygon class="cls-8" points="199.8 106.65 199.81 108.53 228.31 92.07 228.3 90.19 199.8 106.65"/><polygon class="cls-8" points="214.12 78.04 214.13 79.92 228.25 71.77 228.24 69.89 214.12 78.04"/><polygon class="cls-8" points="193.48 98.65 193.49 100.53 228.27 80.45 228.27 78.57 193.48 98.65"/><polygon class="cls-8" points="182.66 113.03 182.66 114.91 228.3 88.56 228.29 86.68 182.66 113.03"/></g><polygon class="cls-8" points="182.6 92.72 182.61 94.6 228.24 68.25 228.23 66.37 182.6 92.72"/><polygon class="cls-8" points="222.19 65.8 222.2 67.68 239.93 57.44 239.93 55.56 222.19 65.8"/><path class="cls-2" d="M24.39,270.61V266.8a5.21,5.21,0,0,1,2.37-4.1l68.58-39.6a1.64,1.64,0,0,1,1.73-.13h0l2.32,1.67s-1.52,1-1.52,1-.06,0-.15,0V231L26.65,272Z"/><path class="cls-3" d="M24.39,270.61V266.8a5.21,5.21,0,0,1,2.37-4.1l68.58-39.6a1.64,1.64,0,0,1,1.73-.13h0l2.32,1.67s-1.52,1-1.52,1-.06,0-.15,0V231L26.65,272Z"/><path class="cls-9" d="M26.65,272l71.08-41,.13,48.76a5.2,5.2,0,0,1-2.36,4.09L28,322.81l.62.77-1.13,1.62-2.31-1.67h0a1.73,1.73,0,0,1-.63-1.46l-.14-51.46Z"/><path class="cls-2" d="M29,264.34a5.22,5.22,0,0,0-2.37,4.09V272L100,229.67V226.1c0-1.51-1.07-2.11-2.38-1.36Z"/><path class="cls-5" d="M29,264.34a5.22,5.22,0,0,0-2.37,4.09V272L100,229.67V226.1c0-1.51-1.07-2.11-2.38-1.36Z"/><path class="cls-10" d="M26.65,272l.15,51.69c0,1.51,1.07,2.11,2.38,1.35l68.59-39.59a5.22,5.22,0,0,0,2.36-4.09l-.15-51.7Z"/><polygon class="cls-8" points="30.46 312.97 30.46 315.13 50.82 303.38 50.81 301.22 30.46 312.97"/><polygon class="cls-8" points="30.42 299.61 30.43 301.77 50.78 290.02 50.78 287.86 30.42 299.61"/><polygon class="cls-8" points="30.42 290.43 30.43 292.58 44.66 284.37 44.65 282.21 30.42 290.43"/><polygon class="cls-8" points="44.7 309.01 44.71 311.16 70.9 296.04 70.89 293.89 44.7 309.01"/><polygon class="cls-8" points="44.77 299.75 44.77 301.91 77.49 283.02 77.48 280.86 44.77 299.75"/><polygon class="cls-8" points="43.57 277.1 43.57 279.26 59.78 269.9 59.78 267.74 43.57 277.1"/><polygon class="cls-8" points="44.79 285.84 44.8 288 84.73 264.95 84.72 262.79 44.79 285.84"/><polygon class="cls-8" points="44.77 295.88 44.77 298.04 97.15 267.79 97.15 265.63 44.77 295.88"/><polygon class="cls-8" points="43.5 273.24 43.51 275.39 95.89 245.15 95.89 242.99 43.5 273.24"/><polygon class="cls-8" points="30.35 276.29 30.36 278.45 50.72 266.7 50.71 264.54 30.35 276.29"/><polygon class="cls-1" points="358.05 237.11 358.05 224.61 302.29 204.91 246.52 224.61 246.52 237.32 302.65 269.73 358.41 237.32 358.05 237.11"/><polygon class="cls-12" points="358.05 237.11 358.05 224.61 302.29 204.91 246.52 224.61 246.52 237.32 302.65 269.73 358.41 237.32 358.05 237.11"/><polygon class="cls-1" points="364.97 207.66 302.26 171.45 239.96 207.66 302.67 243.86 364.97 207.66"/><polygon class="cls-13" points="364.97 207.66 302.26 171.45 239.96 207.66 302.67 243.86 364.97 207.66"/><polygon class="cls-1" points="302.67 243.86 302.61 265.7 364.91 229.49 364.97 207.66 302.67 243.86"/><polygon class="cls-14" points="302.67 243.86 302.61 265.7 364.91 229.49 364.97 207.66 302.67 243.86"/><polygon class="cls-1" points="239.96 207.66 239.9 229.49 302.61 265.7 302.67 243.86 239.96 207.66"/><polygon class="cls-15" points="244.23 216.05 244.2 226.28 273.56 243.22 273.59 233 244.23 216.05"/><path class="cls-1" d="M247.36,221.37l-.86-.49c-.42-.24-.76,0-.76.43v2.25a1.67,1.67,0,0,0,.76,1.31l.86.5c.41.24.76,0,.76-.44v-2.24A1.67,1.67,0,0,0,247.36,221.37Z"/><path class="cls-1" d="M250.78,223.35l-.86-.49c-.42-.25-.76-.05-.76.43v2.25a1.69,1.69,0,0,0,.76,1.31l.86.49c.41.24.76,0,.76-.43v-2.25A1.67,1.67,0,0,0,250.78,223.35Z"/><path class="cls-1" d="M254.2,225.32l-.86-.49c-.42-.24-.76-.05-.76.43v2.25a1.63,1.63,0,0,0,.75,1.31l.86.5c.41.24.76,0,.76-.44v-2.25A1.69,1.69,0,0,0,254.2,225.32Z"/><path class="cls-1" d="M257.62,227.3l-.86-.5c-.42-.24-.76,0-.76.44v2.25a1.65,1.65,0,0,0,.75,1.31l.86.49c.41.24.76.05.76-.43v-2.25A1.67,1.67,0,0,0,257.62,227.3Z"/><path class="cls-1" d="M261,229.27l-.86-.49c-.42-.25-.76-.05-.76.43v2.25a1.63,1.63,0,0,0,.75,1.31l.86.5c.42.24.76,0,.76-.44v-2.25A1.67,1.67,0,0,0,261,229.27Z"/><path class="cls-1" d="M264.46,231.25l-.86-.5c-.42-.24-.76,0-.76.44v2.25a1.65,1.65,0,0,0,.75,1.31l.86.49c.42.24.76,0,.76-.43v-2.25A1.67,1.67,0,0,0,264.46,231.25Z"/><path class="cls-1" d="M267.88,233.22l-.86-.49c-.42-.25-.76,0-.76.43v2.25a1.66,1.66,0,0,0,.75,1.31l.86.5c.42.24.76,0,.76-.44v-2.25A1.67,1.67,0,0,0,267.88,233.22Z"/><path class="cls-16" d="M250.78,223.35l-.86-.49c-.42-.25-.76-.05-.76.43v2.25a1.69,1.69,0,0,0,.76,1.31l.86.49c.41.24.76,0,.76-.43v-2.25A1.67,1.67,0,0,0,250.78,223.35Z"/><path class="cls-16" d="M257.62,227.3l-.86-.5c-.42-.24-.76,0-.76.44v2.25a1.65,1.65,0,0,0,.75,1.31l.86.49c.41.24.76.05.76-.43v-2.25A1.67,1.67,0,0,0,257.62,227.3Z"/><path class="cls-16" d="M261,229.27l-.86-.49c-.42-.25-.76-.05-.76.43v2.25a1.63,1.63,0,0,0,.75,1.31l.86.5c.42.24.76,0,.76-.44v-2.25A1.67,1.67,0,0,0,261,229.27Z"/><path class="cls-16" d="M267.88,233.22l-.86-.49c-.42-.25-.76,0-.76.43v2.25a1.66,1.66,0,0,0,.75,1.31l.86.5c.42.24.76,0,.76-.44v-2.25A1.67,1.67,0,0,0,267.88,233.22Z"/><path class="cls-1" d="M271.3,235.2l-.85-.5c-.43-.24-.77,0-.77.44v2.25a1.68,1.68,0,0,0,.75,1.31l.86.49c.42.24.76.05.76-.43v-2.25A1.67,1.67,0,0,0,271.3,235.2Z"/><path class="cls-1" d="M296.14,251.46a5.34,5.34,0,0,0-2.42-4.19,1.72,1.72,0,0,0-1.69-.19h0L290,248.2h0a1.72,1.72,0,0,1,1.69.19,5.31,5.31,0,0,1,2.42,4.19,1.7,1.7,0,0,1-.69,1.55l1.88-1.07.15-.09h0A1.73,1.73,0,0,0,296.14,251.46Z"/><path class="cls-14" d="M296.14,251.46a5.34,5.34,0,0,0-2.42-4.19,1.72,1.72,0,0,0-1.69-.19h0L290,248.2h0a1.72,1.72,0,0,1,1.69.19,5.31,5.31,0,0,1,2.42,4.19,1.7,1.7,0,0,1-.69,1.55l1.88-1.07.15-.09h0A1.73,1.73,0,0,0,296.14,251.46Z"/><path class="cls-17" d="M293.39,254.17h0Z"/><path class="cls-1" d="M294.15,252.58a5.31,5.31,0,0,0-2.42-4.19,1.72,1.72,0,0,0-1.69-.19,1.67,1.67,0,0,0-.74,1.58,5.3,5.3,0,0,0,2.42,4.19,1.73,1.73,0,0,0,1.67.19h0l0,0A1.7,1.7,0,0,0,294.15,252.58Z"/><path class="cls-13" d="M294.15,252.58a5.31,5.31,0,0,0-2.42-4.19,1.72,1.72,0,0,0-1.69-.19,1.67,1.67,0,0,0-.74,1.58,5.3,5.3,0,0,0,2.42,4.19,1.73,1.73,0,0,0,1.67.19h0l0,0A1.7,1.7,0,0,0,294.15,252.58Z"/><path class="cls-1" d="M286.59,245.71a5.34,5.34,0,0,0-2.42-4.19,1.76,1.76,0,0,0-1.7-.19h0l-1.95,1.1h0a1.76,1.76,0,0,1,1.7.19,5.34,5.34,0,0,1,2.42,4.19,1.72,1.72,0,0,1-.69,1.55l1.88-1.07.15-.08h0A1.82,1.82,0,0,0,286.59,245.71Z"/><path class="cls-14" d="M286.59,245.71a5.34,5.34,0,0,0-2.42-4.19,1.76,1.76,0,0,0-1.7-.19h0l-1.95,1.1h0a1.76,1.76,0,0,1,1.7.19,5.34,5.34,0,0,1,2.42,4.19,1.72,1.72,0,0,1-.69,1.55l1.88-1.07.15-.08h0A1.82,1.82,0,0,0,286.59,245.71Z"/><path class="cls-17" d="M283.84,248.42h0Z"/><path class="cls-1" d="M284.6,246.83a5.34,5.34,0,0,0-2.42-4.19,1.76,1.76,0,0,0-1.7-.19,1.69,1.69,0,0,0-.74,1.58,5.34,5.34,0,0,0,2.42,4.19,1.76,1.76,0,0,0,1.68.2h0l.06,0A1.72,1.72,0,0,0,284.6,246.83Z"/><path class="cls-13" d="M284.6,246.83a5.34,5.34,0,0,0-2.42-4.19,1.76,1.76,0,0,0-1.7-.19,1.69,1.69,0,0,0-.74,1.58,5.34,5.34,0,0,0,2.42,4.19,1.76,1.76,0,0,0,1.68.2h0l.06,0A1.72,1.72,0,0,0,284.6,246.83Z"/><polygon class="cls-1" points="358.05 206.63 358.05 194.13 302.29 174.44 246.52 194.13 246.52 206.84 302.65 239.25 358.41 206.84 358.05 206.63"/><polygon class="cls-12" points="358.05 206.63 358.05 194.13 302.29 174.44 246.52 194.13 246.52 206.84 302.65 239.25 358.41 206.84 358.05 206.63"/><polygon class="cls-1" points="364.97 177.18 302.26 140.97 239.96 177.18 302.67 213.39 364.97 177.18"/><polygon class="cls-13" points="364.97 177.18 302.26 140.97 239.96 177.18 302.67 213.39 364.97 177.18"/><polygon class="cls-1" points="302.67 213.39 302.61 235.22 364.91 199.01 364.97 177.18 302.67 213.39"/><polygon class="cls-14" points="302.67 213.39 302.61 235.22 364.91 199.01 364.97 177.18 302.67 213.39"/><polygon class="cls-1" points="239.96 177.18 239.9 199.01 302.61 235.22 302.67 213.39 239.96 177.18"/><polygon class="cls-15" points="244.23 185.57 244.2 195.8 273.56 212.75 273.59 202.52 244.23 185.57"/><path class="cls-1" d="M247.36,190.9l-.86-.5c-.42-.24-.76,0-.76.44v2.24a1.71,1.71,0,0,0,.76,1.32l.86.49c.41.24.76,0,.76-.44v-2.24A1.63,1.63,0,0,0,247.36,190.9Z"/><path class="cls-1" d="M250.78,192.87l-.86-.49c-.42-.25-.76,0-.76.43v2.25a1.69,1.69,0,0,0,.76,1.31l.86.49c.41.24.76,0,.76-.43v-2.25A1.67,1.67,0,0,0,250.78,192.87Z"/><path class="cls-1" d="M254.2,194.85l-.86-.5c-.42-.24-.76,0-.76.44V197a1.63,1.63,0,0,0,.75,1.31l.86.5c.41.24.76,0,.76-.44v-2.24A1.67,1.67,0,0,0,254.2,194.85Z"/><path class="cls-1" d="M257.62,196.82l-.86-.49c-.42-.25-.76-.05-.76.43V199a1.65,1.65,0,0,0,.75,1.31l.86.49c.41.24.76.05.76-.43v-2.25A1.67,1.67,0,0,0,257.62,196.82Z"/><path class="cls-1" d="M261,198.79l-.86-.49c-.42-.24-.76,0-.76.43V201a1.63,1.63,0,0,0,.75,1.31l.86.5c.42.24.76,0,.76-.44v-2.24A1.71,1.71,0,0,0,261,198.79Z"/><path class="cls-1" d="M264.46,200.77l-.86-.49c-.42-.25-.76-.05-.76.43V203a1.65,1.65,0,0,0,.75,1.31l.86.49c.42.24.76.05.76-.43v-2.25A1.67,1.67,0,0,0,264.46,200.77Z"/><path class="cls-1" d="M267.88,202.74l-.86-.49c-.42-.24-.76-.05-.76.43v2.25a1.66,1.66,0,0,0,.75,1.31l.86.5c.42.24.76,0,.76-.44v-2.25A1.69,1.69,0,0,0,267.88,202.74Z"/><path class="cls-16" d="M250.78,192.87l-.86-.49c-.42-.25-.76,0-.76.43v2.25a1.69,1.69,0,0,0,.76,1.31l.86.49c.41.24.76,0,.76-.43v-2.25A1.67,1.67,0,0,0,250.78,192.87Z"/><path class="cls-16" d="M257.62,196.82l-.86-.49c-.42-.25-.76-.05-.76.43V199a1.65,1.65,0,0,0,.75,1.31l.86.49c.41.24.76.05.76-.43v-2.25A1.67,1.67,0,0,0,257.62,196.82Z"/><path class="cls-16" d="M261,198.79l-.86-.49c-.42-.24-.76,0-.76.43V201a1.63,1.63,0,0,0,.75,1.31l.86.5c.42.24.76,0,.76-.44v-2.24A1.71,1.71,0,0,0,261,198.79Z"/><path class="cls-16" d="M267.88,202.74l-.86-.49c-.42-.24-.76-.05-.76.43v2.25a1.66,1.66,0,0,0,.75,1.31l.86.5c.42.24.76,0,.76-.44v-2.25A1.69,1.69,0,0,0,267.88,202.74Z"/><path class="cls-1" d="M271.3,204.72l-.85-.49c-.43-.25-.77,0-.77.43v2.25a1.68,1.68,0,0,0,.75,1.31l.86.49c.42.24.76,0,.76-.43V206A1.67,1.67,0,0,0,271.3,204.72Z"/><path class="cls-1" d="M296.14,221a5.34,5.34,0,0,0-2.42-4.19,1.74,1.74,0,0,0-1.69-.19h0l-1.95,1.1h0a1.74,1.74,0,0,1,1.69.19,5.31,5.31,0,0,1,2.42,4.19,1.7,1.7,0,0,1-.69,1.55l1.88-1.07.15-.09h0A1.73,1.73,0,0,0,296.14,221Z"/><path class="cls-3" d="M296.14,221a5.34,5.34,0,0,0-2.42-4.19,1.74,1.74,0,0,0-1.69-.19h0l-1.95,1.1h0a1.74,1.74,0,0,1,1.69.19,5.31,5.31,0,0,1,2.42,4.19,1.7,1.7,0,0,1-.69,1.55l1.88-1.07.15-.09h0A1.73,1.73,0,0,0,296.14,221Z"/><path class="cls-17" d="M293.39,223.69h0Z"/><path class="cls-1" d="M294.15,222.1a5.31,5.31,0,0,0-2.42-4.19,1.74,1.74,0,0,0-1.69-.19,1.67,1.67,0,0,0-.74,1.58,5.29,5.29,0,0,0,2.42,4.19,1.74,1.74,0,0,0,1.67.2h0l0,0A1.7,1.7,0,0,0,294.15,222.1Z"/><path class="cls-5" d="M294.15,222.1a5.31,5.31,0,0,0-2.42-4.19,1.74,1.74,0,0,0-1.69-.19,1.67,1.67,0,0,0-.74,1.58,5.29,5.29,0,0,0,2.42,4.19,1.74,1.74,0,0,0,1.67.2h0l0,0A1.7,1.7,0,0,0,294.15,222.1Z"/><path class="cls-1" d="M286.59,215.23a5.34,5.34,0,0,0-2.42-4.19,1.76,1.76,0,0,0-1.7-.19h0l-1.95,1.1h0a1.76,1.76,0,0,1,1.7.19,5.34,5.34,0,0,1,2.42,4.19,1.72,1.72,0,0,1-.69,1.55l1.88-1.07.15-.08h0A1.81,1.81,0,0,0,286.59,215.23Z"/><path class="cls-14" d="M286.59,215.23a5.34,5.34,0,0,0-2.42-4.19,1.76,1.76,0,0,0-1.7-.19h0l-1.95,1.1h0a1.76,1.76,0,0,1,1.7.19,5.34,5.34,0,0,1,2.42,4.19,1.72,1.72,0,0,1-.69,1.55l1.88-1.07.15-.08h0A1.81,1.81,0,0,0,286.59,215.23Z"/><path class="cls-17" d="M283.84,217.94h0Z"/><path class="cls-1" d="M284.6,216.35a5.34,5.34,0,0,0-2.42-4.19,1.76,1.76,0,0,0-1.7-.19,1.7,1.7,0,0,0-.74,1.58,5.34,5.34,0,0,0,2.42,4.19,1.76,1.76,0,0,0,1.68.2h0l.06,0A1.72,1.72,0,0,0,284.6,216.35Z"/><path class="cls-13" d="M284.6,216.35a5.34,5.34,0,0,0-2.42-4.19,1.76,1.76,0,0,0-1.7-.19,1.7,1.7,0,0,0-.74,1.58,5.34,5.34,0,0,0,2.42,4.19,1.76,1.76,0,0,0,1.68.2h0l.06,0A1.72,1.72,0,0,0,284.6,216.35Z"/><polygon class="cls-1" points="358.05 176.15 358.05 163.65 302.29 143.96 246.52 163.65 246.52 176.36 302.65 208.77 358.41 176.36 358.05 176.15"/><polygon class="cls-12" points="358.05 176.15 358.05 163.65 302.29 143.96 246.52 163.65 246.52 176.36 302.65 208.77 358.41 176.36 358.05 176.15"/><polygon class="cls-1" points="364.97 146.7 302.26 110.5 239.96 146.7 302.67 182.91 364.97 146.7"/><polygon class="cls-13" points="364.97 146.7 302.26 110.5 239.96 146.7 302.67 182.91 364.97 146.7"/><polygon class="cls-1" points="302.67 182.91 302.61 204.74 364.91 168.54 364.97 146.7 302.67 182.91"/><polygon class="cls-14" points="302.67 182.91 302.61 204.74 364.91 168.54 364.97 146.7 302.67 182.91"/><polygon class="cls-1" points="239.96 146.7 239.9 168.54 302.61 204.74 302.67 182.91 239.96 146.7"/><polygon class="cls-15" points="244.23 155.1 244.2 165.32 273.56 182.27 273.59 172.05 244.23 155.1"/><path class="cls-1" d="M247.36,160.42l-.86-.5c-.42-.24-.76,0-.76.44v2.25a1.7,1.7,0,0,0,.76,1.31l.86.49c.41.24.76.05.76-.43v-2.25A1.63,1.63,0,0,0,247.36,160.42Z"/><path class="cls-1" d="M250.78,162.39l-.86-.49c-.42-.25-.76-.05-.76.43v2.25a1.67,1.67,0,0,0,.76,1.31l.86.49c.41.25.76.05.76-.43V163.7A1.67,1.67,0,0,0,250.78,162.39Z"/><path class="cls-1" d="M254.2,164.37l-.86-.5c-.42-.24-.76,0-.76.44v2.24a1.67,1.67,0,0,0,.75,1.32l.86.49a.46.46,0,0,0,.76-.43v-2.25A1.67,1.67,0,0,0,254.2,164.37Z"/><path class="cls-1" d="M257.62,166.34l-.86-.49c-.42-.25-.76,0-.76.43v2.25a1.63,1.63,0,0,0,.75,1.31l.86.49c.41.25.76,0,.76-.43v-2.25A1.67,1.67,0,0,0,257.62,166.34Z"/><path class="cls-1" d="M261,168.32l-.86-.5c-.42-.24-.76,0-.76.44v2.24a1.67,1.67,0,0,0,.75,1.32l.86.49c.42.24.76,0,.76-.44v-2.24A1.67,1.67,0,0,0,261,168.32Z"/><path class="cls-1" d="M264.46,170.29l-.86-.49c-.42-.25-.76-.05-.76.43v2.25a1.63,1.63,0,0,0,.75,1.31l.86.49c.42.24.76.05.76-.43V171.6A1.67,1.67,0,0,0,264.46,170.29Z"/><path class="cls-1" d="M267.88,172.27l-.86-.5c-.42-.24-.76,0-.76.44v2.24a1.66,1.66,0,0,0,.75,1.31l.86.5c.42.24.76,0,.76-.44v-2.24A1.67,1.67,0,0,0,267.88,172.27Z"/><path class="cls-16" d="M250.78,162.39l-.86-.49c-.42-.25-.76-.05-.76.43v2.25a1.67,1.67,0,0,0,.76,1.31l.86.49c.41.25.76.05.76-.43V163.7A1.67,1.67,0,0,0,250.78,162.39Z"/><path class="cls-16" d="M257.62,166.34l-.86-.49c-.42-.25-.76,0-.76.43v2.25a1.63,1.63,0,0,0,.75,1.31l.86.49c.41.25.76,0,.76-.43v-2.25A1.67,1.67,0,0,0,257.62,166.34Z"/><path class="cls-16" d="M261,168.32l-.86-.5c-.42-.24-.76,0-.76.44v2.24a1.67,1.67,0,0,0,.75,1.32l.86.49c.42.24.76,0,.76-.44v-2.24A1.67,1.67,0,0,0,261,168.32Z"/><path class="cls-16" d="M267.88,172.27l-.86-.5c-.42-.24-.76,0-.76.44v2.24a1.66,1.66,0,0,0,.75,1.31l.86.5c.42.24.76,0,.76-.44v-2.24A1.67,1.67,0,0,0,267.88,172.27Z"/><path class="cls-1" d="M271.3,174.24l-.85-.49c-.43-.25-.77-.05-.77.43v2.25a1.68,1.68,0,0,0,.75,1.31l.86.49c.42.24.76.05.76-.43v-2.25A1.67,1.67,0,0,0,271.3,174.24Z"/><path class="cls-1" d="M296.14,190.5a5.34,5.34,0,0,0-2.42-4.19,1.74,1.74,0,0,0-1.69-.19h0l-1.95,1.1h0a1.74,1.74,0,0,1,1.69.19,5.31,5.31,0,0,1,2.42,4.19,1.7,1.7,0,0,1-.69,1.55l1.88-1.07.15-.08h0A1.75,1.75,0,0,0,296.14,190.5Z"/><path class="cls-14" d="M296.14,190.5a5.34,5.34,0,0,0-2.42-4.19,1.74,1.74,0,0,0-1.69-.19h0l-1.95,1.1h0a1.74,1.74,0,0,1,1.69.19,5.31,5.31,0,0,1,2.42,4.19,1.7,1.7,0,0,1-.69,1.55l1.88-1.07.15-.08h0A1.75,1.75,0,0,0,296.14,190.5Z"/><path class="cls-17" d="M293.39,193.21h0Z"/><path class="cls-1" d="M294.15,191.62a5.31,5.31,0,0,0-2.42-4.19,1.74,1.74,0,0,0-1.69-.19,1.67,1.67,0,0,0-.74,1.58,5.29,5.29,0,0,0,2.42,4.19,1.74,1.74,0,0,0,1.67.2h0l0,0A1.7,1.7,0,0,0,294.15,191.62Z"/><path class="cls-13" d="M294.15,191.62a5.31,5.31,0,0,0-2.42-4.19,1.74,1.74,0,0,0-1.69-.19,1.67,1.67,0,0,0-.74,1.58,5.29,5.29,0,0,0,2.42,4.19,1.74,1.74,0,0,0,1.67.2h0l0,0A1.7,1.7,0,0,0,294.15,191.62Z"/><path class="cls-1" d="M286.59,184.76a5.36,5.36,0,0,0-2.42-4.2,1.76,1.76,0,0,0-1.7-.19h0l-1.95,1.11h0a1.73,1.73,0,0,1,1.7.18,5.36,5.36,0,0,1,2.42,4.2,1.71,1.71,0,0,1-.69,1.54l1.88-1.06.15-.09h0A1.8,1.8,0,0,0,286.59,184.76Z"/><path class="cls-14" d="M286.59,184.76a5.36,5.36,0,0,0-2.42-4.2,1.76,1.76,0,0,0-1.7-.19h0l-1.95,1.11h0a1.73,1.73,0,0,1,1.7.18,5.36,5.36,0,0,1,2.42,4.2,1.71,1.71,0,0,1-.69,1.54l1.88-1.06.15-.09h0A1.8,1.8,0,0,0,286.59,184.76Z"/><path class="cls-17" d="M283.84,187.46h0Z"/><path class="cls-1" d="M284.6,185.88a5.36,5.36,0,0,0-2.42-4.2,1.73,1.73,0,0,0-1.7-.18,1.67,1.67,0,0,0-.74,1.57,5.34,5.34,0,0,0,2.42,4.19,1.76,1.76,0,0,0,1.68.2h0l.06,0A1.71,1.71,0,0,0,284.6,185.88Z"/><path class="cls-13" d="M284.6,185.88a5.36,5.36,0,0,0-2.42-4.2,1.73,1.73,0,0,0-1.7-.18,1.67,1.67,0,0,0-.74,1.57,5.34,5.34,0,0,0,2.42,4.19,1.76,1.76,0,0,0,1.68.2h0l.06,0A1.71,1.71,0,0,0,284.6,185.88Z"/><polygon class="cls-1" points="358.05 145.67 358.05 133.17 302.29 113.48 246.52 133.17 246.52 145.88 302.65 178.29 358.41 145.88 358.05 145.67"/><polygon class="cls-12" points="358.05 145.67 358.05 133.17 302.29 113.48 246.52 133.17 246.52 145.88 302.65 178.29 358.41 145.88 358.05 145.67"/><polygon class="cls-1" points="364.97 116.22 302.26 80.02 239.96 116.22 302.67 152.43 364.97 116.22"/><polygon class="cls-13" points="364.97 116.22 302.26 80.02 239.96 116.22 302.67 152.43 364.97 116.22"/><polygon class="cls-1" points="302.67 152.43 302.61 174.26 364.91 138.06 364.97 116.22 302.67 152.43"/><polygon class="cls-14" points="302.67 152.43 302.61 174.26 364.91 138.06 364.97 116.22 302.67 152.43"/><polygon class="cls-1" points="239.96 116.22 239.9 138.06 302.61 174.26 302.67 152.43 239.96 116.22"/><polygon class="cls-15" points="244.23 124.62 244.2 134.84 273.56 151.79 273.59 141.57 244.23 124.62"/><path class="cls-1" d="M247.36,129.94l-.86-.5c-.42-.24-.76,0-.76.44v2.25a1.69,1.69,0,0,0,.76,1.31l.86.49c.41.24.76,0,.76-.43v-2.25A1.63,1.63,0,0,0,247.36,129.94Z"/><path class="cls-1" d="M250.78,131.91l-.86-.49c-.42-.25-.76,0-.76.43v2.25a1.67,1.67,0,0,0,.76,1.31l.86.5c.41.24.76,0,.76-.44v-2.25A1.67,1.67,0,0,0,250.78,131.91Z"/><path class="cls-1" d="M254.2,133.89l-.86-.5c-.42-.24-.76,0-.76.44v2.25a1.65,1.65,0,0,0,.75,1.31l.86.49c.41.24.76.05.76-.43V135.2A1.67,1.67,0,0,0,254.2,133.89Z"/><path class="cls-1" d="M257.62,135.86l-.86-.49c-.42-.25-.76-.05-.76.43v2.25a1.63,1.63,0,0,0,.75,1.31l.86.5c.41.24.76,0,.76-.44v-2.25A1.67,1.67,0,0,0,257.62,135.86Z"/><path class="cls-1" d="M261,137.84l-.86-.5c-.42-.24-.76,0-.76.44V140a1.65,1.65,0,0,0,.75,1.31l.86.49c.42.24.76,0,.76-.43v-2.25A1.67,1.67,0,0,0,261,137.84Z"/><path class="cls-1" d="M264.46,139.81l-.86-.49c-.42-.25-.76,0-.76.43V142a1.63,1.63,0,0,0,.75,1.31l.86.49c.42.25.76,0,.76-.43v-2.25A1.67,1.67,0,0,0,264.46,139.81Z"/><path class="cls-1" d="M267.88,141.79l-.86-.5c-.42-.24-.76,0-.76.44V144a1.69,1.69,0,0,0,.75,1.31l.86.49c.42.24.76.05.76-.43V143.1A1.67,1.67,0,0,0,267.88,141.79Z"/><path class="cls-16" d="M250.78,131.91l-.86-.49c-.42-.25-.76,0-.76.43v2.25a1.67,1.67,0,0,0,.76,1.31l.86.5c.41.24.76,0,.76-.44v-2.25A1.67,1.67,0,0,0,250.78,131.91Z"/><path class="cls-16" d="M257.62,135.86l-.86-.49c-.42-.25-.76-.05-.76.43v2.25a1.63,1.63,0,0,0,.75,1.31l.86.5c.41.24.76,0,.76-.44v-2.25A1.67,1.67,0,0,0,257.62,135.86Z"/><path class="cls-16" d="M261,137.84l-.86-.5c-.42-.24-.76,0-.76.44V140a1.65,1.65,0,0,0,.75,1.31l.86.49c.42.24.76,0,.76-.43v-2.25A1.67,1.67,0,0,0,261,137.84Z"/><path class="cls-16" d="M267.88,141.79l-.86-.5c-.42-.24-.76,0-.76.44V144a1.69,1.69,0,0,0,.75,1.31l.86.49c.42.24.76.05.76-.43V143.1A1.67,1.67,0,0,0,267.88,141.79Z"/><path class="cls-1" d="M271.3,143.76l-.85-.49c-.43-.25-.77-.05-.77.43V146a1.66,1.66,0,0,0,.75,1.31l.86.49c.42.25.76.05.76-.43v-2.25A1.67,1.67,0,0,0,271.3,143.76Z"/><path class="cls-1" d="M296.14,160a5.34,5.34,0,0,0-2.42-4.19,1.74,1.74,0,0,0-1.69-.19h0l-1.95,1.1h0a1.71,1.71,0,0,1,1.69.18,5.33,5.33,0,0,1,2.42,4.2,1.69,1.69,0,0,1-.69,1.54l1.88-1.06.15-.09h0A1.75,1.75,0,0,0,296.14,160Z"/><path class="cls-14" d="M296.14,160a5.34,5.34,0,0,0-2.42-4.19,1.74,1.74,0,0,0-1.69-.19h0l-1.95,1.1h0a1.71,1.71,0,0,1,1.69.18,5.33,5.33,0,0,1,2.42,4.2,1.69,1.69,0,0,1-.69,1.54l1.88-1.06.15-.09h0A1.75,1.75,0,0,0,296.14,160Z"/><path class="cls-17" d="M293.39,162.73h0Z"/><path class="cls-1" d="M294.15,161.15a5.33,5.33,0,0,0-2.42-4.2,1.71,1.71,0,0,0-1.69-.18,1.65,1.65,0,0,0-.74,1.57,5.29,5.29,0,0,0,2.42,4.19,1.74,1.74,0,0,0,1.67.2h0l0,0A1.69,1.69,0,0,0,294.15,161.15Z"/><path class="cls-13" d="M294.15,161.15a5.33,5.33,0,0,0-2.42-4.2,1.71,1.71,0,0,0-1.69-.18,1.65,1.65,0,0,0-.74,1.57,5.29,5.29,0,0,0,2.42,4.19,1.74,1.74,0,0,0,1.67.2h0l0,0A1.69,1.69,0,0,0,294.15,161.15Z"/><path class="cls-1" d="M286.59,154.28a5.36,5.36,0,0,0-2.42-4.2,1.76,1.76,0,0,0-1.7-.19h0l0,0-1.95,1.1h0a1.73,1.73,0,0,1,1.7.18,5.36,5.36,0,0,1,2.42,4.2,1.71,1.71,0,0,1-.69,1.54l1.88-1.06.15-.09h0A1.8,1.8,0,0,0,286.59,154.28Z"/><path class="cls-3" d="M286.59,154.28a5.36,5.36,0,0,0-2.42-4.2,1.76,1.76,0,0,0-1.7-.19h0l0,0-1.95,1.1h0a1.73,1.73,0,0,1,1.7.18,5.36,5.36,0,0,1,2.42,4.2,1.71,1.71,0,0,1-.69,1.54l1.88-1.06.15-.09h0A1.8,1.8,0,0,0,286.59,154.28Z"/><path class="cls-17" d="M283.84,157h0Z"/><path class="cls-1" d="M284.6,155.4a5.36,5.36,0,0,0-2.42-4.2,1.73,1.73,0,0,0-1.7-.18,1.67,1.67,0,0,0-.74,1.57,5.37,5.37,0,0,0,2.42,4.2,1.78,1.78,0,0,0,1.68.19h0l.06,0A1.71,1.71,0,0,0,284.6,155.4Z"/><path class="cls-5" d="M284.6,155.4a5.36,5.36,0,0,0-2.42-4.2,1.73,1.73,0,0,0-1.7-.18,1.67,1.67,0,0,0-.74,1.57,5.37,5.37,0,0,0,2.42,4.2,1.78,1.78,0,0,0,1.68.19h0l.06,0A1.71,1.71,0,0,0,284.6,155.4Z"/></g></g></svg>